<svg width="12" height="12" viewBox="0 0 12 12" fill="none" xmlns="http://www.w3.org/2000/svg">
<path d="M6 0C4.81331 0 3.65328 0.351894 2.66658 1.01118C1.67989 1.67047 0.910851 2.60754 0.456725 3.7039C0.00259966 4.80026 -0.11622 6.00665 0.115291 7.17054C0.346802 8.33443 0.918247 9.40352 1.75736 10.2426C2.59648 11.0818 3.66557 11.6532 4.82946 11.8847C5.99335 12.1162 7.19975 11.9974 8.2961 11.5433C9.39246 11.0892 10.3295 10.3201 10.9888 9.33342C11.6481 8.34673 12 7.18669 12 6C11.9984 4.40919 11.3657 2.884 10.2409 1.75913C9.116 0.634258 7.59081 0.00160243 6 0ZM8.343 6.37831H6.37831V8.343C6.37831 8.44333 6.33845 8.53956 6.26751 8.61051C6.19656 8.68145 6.10034 8.72131 6 8.72131C5.89967 8.72131 5.80344 8.68145 5.7325 8.61051C5.66155 8.53956 5.62169 8.44333 5.62169 8.343V6.37831H3.657C3.55667 6.37831 3.46044 6.33845 3.38949 6.26751C3.31855 6.19656 3.27869 6.10033 3.27869 6C3.27869 5.89967 3.31855 5.80344 3.38949 5.73249C3.46044 5.66155 3.55667 5.62169 3.657 5.62169H5.62169V3.657C5.62169 3.55666 5.66155 3.46044 5.7325 3.38949C5.80344 3.31855 5.89967 3.27869 6 3.27869C6.10034 3.27869 6.19656 3.31855 6.26751 3.38949C6.33845 3.46044 6.37831 3.55666 6.37831 3.657V5.62169H8.343C8.44334 5.62169 8.53956 5.66155 8.61051 5.73249C8.68145 5.80344 8.72131 5.89967 8.72131 6C8.72131 6.10033 8.68145 6.19656 8.61051 6.26751C8.53956 6.33845 8.44334 6.37831 8.343 6.37831Z" fill="white"/>
</svg>
