<svg width="16" height="16" viewBox="0 0 16 16" fill="none" xmlns="http://www.w3.org/2000/svg">
<path d="M10.7968 5.84986C10.6682 3.86574 9.96906 1.92262 8.67518 0.307456C8.34568 -0.102485 7.74294 -0.102485 7.41344 0.307456C6.12948 1.87686 5.352 3.81255 5.18731 5.84986C6.21599 6.40738 7.1643 7.12888 7.99207 8.00615C8.81984 7.13707 9.76815 6.41558 10.7968 5.84986ZM5.57307 8.02255C5.46055 7.94056 5.33197 7.86677 5.21142 7.78478C5.33197 7.87497 5.46055 7.94056 5.57307 8.02255ZM7.99207 10.6216C6.42494 8.18652 3.86128 6.49757 0.895788 6.20241C0.381449 6.15322 -0.0444893 6.58775 0.0037301 7.11248C0.365375 11.0479 2.93707 14.311 6.4169 15.5819C6.92321 15.7704 7.45362 15.9098 8.00011 16C8.54659 15.9016 9.06897 15.7622 9.58331 15.5819C13.0631 14.311 15.6348 11.0561 15.9965 7.11248C16.0076 6.99013 15.9922 6.86678 15.9513 6.7512C15.9104 6.63562 15.8451 6.53065 15.7599 6.44376C15.6747 6.35687 15.5718 6.2902 15.4586 6.24849C15.3453 6.20677 15.2244 6.19104 15.1044 6.20241C12.1229 6.49757 9.5592 8.18652 7.99207 10.6216Z" fill="#3D6464"/>
</svg>
