<svg width="64" height="64" viewBox="0 0 64 64" fill="none" xmlns="http://www.w3.org/2000/svg">
<path d="M9.748 12.2831L9.748 59.3511H40.712V12.2831H9.748Z" fill="#FAF3E0"/>
<path d="M9.748 49.0091V59.3511H40.712V49.0091H9.748Z" fill="#F9D3C8"/>
<path d="M46.244 10.2541V59.3511H62.001V10.2541H46.244Z" fill="#128291"/>
<path d="M48.644 10.2509V61.9999H38.016C36.786 61.9999 35.789 61.0029 35.789 59.7729V10.2509C35.789 9.02093 36.786 8.02393 38.016 8.02393H46.417C47.647 8.02493 48.644 9.02193 48.644 10.2509ZM29.196 15.3749V38.5909H2.062V15.3749C2.062 12.5459 4.355 10.2529 7.184 10.2529H24.075C26.903 10.2539 29.196 12.5469 29.196 15.3749Z" fill="#52D5D8"/>
<path d="M29.196 38.592C29.196 41.421 26.903 43.714 24.074 43.714H7.184C4.355 43.714 2.062 41.421 2.062 38.592C2.062 35.763 4.355 33.47 7.184 33.47H24.075C26.903 33.47 29.196 35.763 29.196 38.592Z" fill="#128291"/>
<path d="M16.674 42.18V48.778L18.389 47.393C19.698 46.336 21.616 46.54 22.673 47.849C23.73 49.158 23.526 51.076 22.217 52.133L16.674 56.608V62H2V42.18C2 40.338 3.493 38.845 5.335 38.845H13.339C15.181 38.845 16.674 40.338 16.674 42.18ZM47.326 42.18V48.778L45.611 47.393C44.302 46.336 42.384 46.54 41.327 47.849C40.27 49.158 40.474 51.076 41.783 52.133L47.326 56.608V62H62V42.18C62 40.338 60.507 38.845 58.665 38.845H50.661C48.819 38.845 47.326 40.338 47.326 42.18Z" fill="#FAAD95"/>
<path d="M11.978 46.294C11.426 46.294 10.978 45.847 10.978 45.294V40.729C10.978 40.176 11.426 39.729 11.978 39.729C12.53 39.729 12.978 40.176 12.978 40.729V45.294C12.978 45.847 12.53 46.294 11.978 46.294ZM7.952 45.294V40.729C7.952 40.176 7.504 39.729 6.952 39.729C6.4 39.729 5.952 40.176 5.952 40.729V45.294C5.952 45.847 6.4 46.294 6.952 46.294C7.504 46.294 7.952 45.847 7.952 45.294ZM53.021 45.294V40.729C53.021 40.176 52.574 39.729 52.021 39.729C51.468 39.729 51.021 40.176 51.021 40.729V45.294C51.021 45.847 51.468 46.294 52.021 46.294C52.574 46.294 53.021 45.847 53.021 45.294ZM58.049 45.294V40.729C58.049 40.176 57.602 39.729 57.049 39.729C56.496 39.729 56.049 40.176 56.049 40.729V45.294C56.049 45.847 56.496 46.294 57.049 46.294C57.602 46.294 58.049 45.847 58.049 45.294Z" fill="#F78177"/>
<path d="M13.674 3.861C13.674 4.414 13.226 4.861 12.674 4.861H12.295V5.722C12.295 6.275 11.847 6.722 11.295 6.722C10.743 6.722 10.295 6.275 10.295 5.722V4.861H9.916C9.364 4.861 8.916 4.414 8.916 3.861C8.916 3.308 9.364 2.861 9.916 2.861H10.295V2C10.295 1.447 10.743 1 11.295 1C11.847 1 12.295 1.447 12.295 2V2.861H12.674C13.227 2.861 13.674 3.309 13.674 3.861ZM54.084 2.861H53.705V2C53.705 1.447 53.258 1 52.705 1C52.152 1 51.705 1.447 51.705 2V2.861H51.325C50.772 2.861 50.325 3.308 50.325 3.861C50.325 4.414 50.772 4.861 51.325 4.861H51.705V5.722C51.705 6.275 52.152 6.722 52.705 6.722C53.258 6.722 53.705 6.275 53.705 5.722V4.861H54.084C54.637 4.861 55.084 4.414 55.084 3.861C55.084 3.308 54.637 2.861 54.084 2.861ZM33.379 5.163H33V4.302C33 3.749 32.552 3.302 32 3.302C31.448 3.302 31 3.749 31 4.302V5.163H30.621C30.069 5.163 29.621 5.61 29.621 6.163C29.621 6.716 30.069 7.163 30.621 7.163H31V8.024C31 8.577 31.448 9.024 32 9.024C32.552 9.024 33 8.577 33 8.024V7.163H33.379C33.932 7.163 34.379 6.716 34.379 6.163C34.379 5.61 33.932 5.163 33.379 5.163Z" fill="#FFC600"/>
</svg>
