<svg width="19" height="30" viewBox="0 0 19 30" fill="none" xmlns="http://www.w3.org/2000/svg">
<path d="M9.5 0C9.89524 0 10.2156 0.359772 10.2156 0.803571V10.9821C10.2156 10.9887 10.2156 10.9952 10.2154 11.0017C15.5705 11.2981 18.5951 14.9347 18.9959 19.5548C19.0469 20.1437 18.6145 20.625 18.0875 20.625H0.912502C0.385514 20.625 -0.0469875 20.1437 0.00410828 19.5548C0.404931 14.9347 3.42948 11.2981 8.78459 11.0017C8.78445 10.9952 8.78438 10.9887 8.78438 10.9821V0.803571C8.78438 0.359772 9.10476 0 9.5 0ZM9.5 23.8393C10.554 23.8393 11.4083 22.8799 11.4083 21.6964H7.59167C7.59167 22.8799 8.44605 23.8393 9.5 23.8393ZM3.884 23.9404C4.22948 24.1559 4.35398 24.6453 4.16202 25.0331L2.96931 27.4438C2.77738 27.8317 2.3417 27.9715 1.9962 27.7559C1.65072 27.5405 1.52622 27.0512 1.71818 26.6633L2.91089 24.2526C3.10282 23.8647 3.5385 23.7249 3.884 23.9404ZM14.838 25.0331C14.646 24.6453 14.7705 24.1559 15.116 23.9404C15.4615 23.7249 15.8972 23.8647 16.0891 24.2526L17.2818 26.6633C17.4738 27.0512 17.3493 27.5405 17.0038 27.7559C16.6583 27.9715 16.2226 27.8317 16.0307 27.4438L14.838 25.0331ZM10.2156 26.5179C10.2156 26.074 9.89524 25.7143 9.5 25.7143C9.10476 25.7143 8.78438 26.074 8.78438 26.5179V29.1964C8.78438 29.6403 9.10476 30 9.5 30C9.89524 30 10.2156 29.6403 10.2156 29.1964V26.5179Z" fill="#3D6464"/>
</svg>
