<svg width="24" height="22" viewBox="0 0 24 22" fill="none" xmlns="http://www.w3.org/2000/svg">
<path d="M12.0001 18.12C14.1361 18.12 15.8737 16.3824 15.8737 14.2464C15.8737 12.1104 14.1361 10.3728 12.0001 10.3728C9.86409 10.3728 8.1265 12.1104 8.1265 14.2464C8.1265 16.3824 9.86409 18.12 12.0001 18.12Z" fill="#3D6464"/>
<path d="M11.9998 21.24C15.8542 21.24 18.9886 18.1008 18.9886 14.2464C18.9886 10.392 15.8542 7.25759 11.9998 7.25759C8.1454 7.25759 5.011 10.392 5.011 14.2464C5.011 18.1008 8.1454 21.24 11.9998 21.24ZM11.9998 9.40799C14.6638 9.40799 16.8334 11.5776 16.8334 14.2416C16.8334 16.9056 14.6638 19.08 11.9998 19.08C9.3358 19.08 7.1662 16.9104 7.1662 14.2464C7.1662 11.5824 9.331 9.40799 11.9998 9.40799ZM23.5198 0C23.2558 0 23.0398 0.2112 23.0398 0.479999V4.89119C23.0398 5.89919 22.219 6.71999 21.211 6.71999C20.203 6.71999 19.387 5.89919 19.387 4.89119V0.479999C19.387 0.2112 19.171 0 18.907 0C18.6382 0 18.427 0.2112 18.427 0.479999V4.89119C18.427 6.26399 19.4206 7.41119 20.731 7.63679V20.76C20.731 21.024 20.947 21.24 21.211 21.24C21.475 21.24 21.691 21.024 21.691 20.76V7.63679C23.0014 7.41119 23.9998 6.26399 23.9998 4.89119V0.479999C23.9998 0.2112 23.7838 0 23.5198 0Z" fill="#3D6464"/>
<path d="M21.2112 5.03999C21.4752 5.03999 21.6912 4.82399 21.6912 4.55999V0.479999C21.6912 0.2112 21.4752 0 21.2112 0C20.9472 0 20.7312 0.2112 20.7312 0.479999V4.55999C20.7312 4.82399 20.9472 5.03999 21.2112 5.03999ZM2.304 8.99519V20.76C2.304 21.024 2.52 21.24 2.784 21.24C3.0528 21.24 3.264 21.024 3.264 20.76V8.99519C4.59359 8.63999 5.57279 6.80639 5.57279 4.53119C5.57279 1.9872 4.34879 0 2.784 0C1.224 0 0 1.9872 0 4.53119C0 6.80159 0.979199 8.63519 2.304 8.99519Z" fill="#3D6464"/>
</svg>
