<svg width="16" height="26" viewBox="0 0 16 26" fill="none" xmlns="http://www.w3.org/2000/svg">
<path d="M15.1975 4.58278C15.1911 4.5642 15.1811 4.54581 15.1729 4.52879L15.1724 4.52778L15.1719 4.52667L15.1715 4.52623C14.7915 3.73527 14.2824 3.01272 13.6578 2.37878C12.1474 0.844767 10.138 0 8 0C4.2763 0 0.991927 2.67488 0.190365 6.36009C-0.00338542 7.24598 0.536719 8.15899 1.37031 8.35391C1.79818 8.4527 2.23307 8.37785 2.59479 8.14338C2.9612 7.90614 3.2138 7.53507 3.30599 7.0988C3.81823 4.68642 6.03125 3.04145 8.46068 3.27314C10.7549 3.48962 12.5737 5.38652 12.7852 7.78368C12.8736 8.776 12.5841 9.54435 11.9006 10.1327C11.8964 10.136 11.8922 10.1392 11.888 10.1428C11.6938 10.3116 11.4555 10.4714 11.1789 10.6184C10.0992 11.201 8.62578 11.5164 7.06589 11.8503C3.75391 12.5591 0 13.3626 0 17.1979V24.375C0 25.2711 0.717708 26 1.6 26H14.4C15.2823 26 16 25.2711 16 24.375V8.125C16 6.87752 15.729 5.68641 15.1975 4.58278ZM15.4667 24.375C15.4667 24.9723 14.9883 25.4583 14.4 25.4583H1.6C1.01172 25.4583 0.533333 24.9723 0.533333 24.375V17.1979C0.533333 13.8021 3.91016 13.0792 7.17578 12.3802C8.7737 12.0382 10.2828 11.7153 11.4276 11.0977C11.7354 10.9341 12.0047 10.7532 12.2284 10.5599C12.2299 10.5588 12.2313 10.5577 12.2326 10.5565C13.9161 9.30157 14.8904 7.73832 15.1404 5.89737C15.3573 6.61122 15.4667 7.35667 15.4667 8.125V24.375ZM9.84001 19.0206C9.85334 19.0396 9.86934 19.064 9.86934 19.0965C9.86934 19.1046 9.86667 19.11 9.86667 19.1181L9.14666 22.9667C9.112 23.1535 8.93066 23.2917 8.71467 23.2917H5.688C5.47467 23.2917 5.29067 23.1535 5.25601 22.9667L5.08499 22.0525C5.62619 21.8238 6.41815 21.2722 7.41198 19.9761C7.50234 19.8581 7.48151 19.6879 7.36537 19.596C7.24896 19.5041 7.08151 19.5251 6.99115 19.6434C5.87839 21.0946 5.08073 21.5028 4.70469 21.6168C4.52656 21.6708 4.20807 21.7291 4.07109 21.5163C3.90208 21.2535 4.02969 20.6298 4.60026 19.9459C4.671 19.8612 4.68106 19.7454 4.63584 19.6517L4.536 19.1181C4.528 19.0748 4.54666 19.0423 4.56266 19.0206C4.59733 18.9827 4.648 18.9583 4.70667 18.9583H9.696C9.75467 18.9583 9.80801 18.9827 9.84001 19.0206ZM6.6651 15.4375C6.6651 15.3193 6.74063 15.2148 6.85156 15.1792C7.45912 14.9846 7.83776 14.6012 8.00912 14.0072C8.04245 13.8918 8.14662 13.8125 8.2651 13.8125C8.38359 13.8125 8.48776 13.8918 8.52109 14.0072C8.69245 14.6012 9.07109 14.9846 9.67865 15.1792C9.78958 15.2148 9.8651 15.3193 9.8651 15.4375C9.8651 15.5557 9.78958 15.6602 9.67865 15.6958C9.07109 15.8904 8.69245 16.2738 8.52109 16.8678C8.48776 16.9832 8.38359 17.0625 8.2651 17.0625C8.14662 17.0625 8.04245 16.9832 8.00912 16.8678C7.83776 16.2738 7.45912 15.8904 6.85156 15.6958C6.74063 15.6602 6.6651 15.5557 6.6651 15.4375ZM12.5318 17.3333C12.5318 17.4516 12.4563 17.556 12.3453 17.5916C11.8708 17.7436 11.5878 18.0299 11.4544 18.4928C11.4211 18.6082 11.3169 18.6875 11.1984 18.6875C11.0799 18.6875 10.9758 18.6082 10.9424 18.4928C10.8091 18.0299 10.526 17.7436 10.0516 17.5916C9.94063 17.556 9.8651 17.4516 9.8651 17.3333C9.8651 17.2151 9.94063 17.1106 10.0516 17.0751C10.526 16.9231 10.8091 16.6368 10.9424 16.1738C10.9758 16.0585 11.0799 15.9792 11.1984 15.9792C11.3169 15.9792 11.4211 16.0585 11.4544 16.1738C11.5878 16.6368 11.8708 16.9231 12.3453 17.0751C12.4563 17.1106 12.5318 17.2151 12.5318 17.3333Z" fill="#3D6464"/>
</svg>
