<svg width="20" height="20" viewBox="0 0 20 20" fill="none" xmlns="http://www.w3.org/2000/svg">
<path fill-rule="evenodd" clip-rule="evenodd" d="M5.637 1.395C3.06 1.395 1.395 3.162 1.395 5.888V14.102C1.395 14.867 1.537 15.55 1.78 16.142L2.318 15.486C2.902 14.776 3.751 13.74 3.758 13.734C4.449 12.944 5.748 11.766 7.453 12.479C7.827 12.634 8.159 12.847 8.465 13.042L8.553 13.098C9.126 13.481 9.463 13.661 9.813 13.631C9.958 13.611 10.094 13.568 10.223 13.488C10.71 13.188 11.972 11.401 12.349 10.866L12.453 10.719C13.543 9.299 15.223 8.919 16.623 9.759C16.811 9.871 18.158 10.812 18.604 11.19V5.888C18.604 3.162 16.939 1.395 14.354 1.395H5.637ZM14.353 0C17.73 0 20 2.362 20 5.888V14.102C20 14.192 19.991 14.274 19.982 14.357C19.9708 14.4523 19.9641 14.5481 19.962 14.644C19.96 14.692 19.958 14.741 19.954 14.789C19.952 14.809 19.949 14.827 19.944 14.845C19.9401 14.8632 19.9371 14.8815 19.935 14.9C19.9038 15.2048 19.852 15.5072 19.78 15.805C19.764 15.878 19.744 15.948 19.725 16.019L19.72 16.034C19.64 16.316 19.546 16.585 19.433 16.842L19.372 16.97C19.2448 17.243 19.0949 17.505 18.924 17.753C18.895 17.793 18.865 17.831 18.834 17.869L18.775 17.944C18.6191 18.1508 18.4476 18.3454 18.262 18.526C18.225 18.562 18.184 18.595 18.144 18.627L18.068 18.689C17.8776 18.8577 17.6747 19.0118 17.461 19.15C17.414 19.18 17.364 19.205 17.314 19.23C17.281 19.246 17.249 19.262 17.217 19.28C16.9962 19.407 16.7667 19.5179 16.53 19.612C16.472 19.635 16.41 19.651 16.347 19.667C16.3027 19.6778 16.2587 19.6898 16.215 19.703L16.151 19.723C15.9325 19.7963 15.7093 19.8547 15.483 19.898C15.348 19.922 15.204 19.931 15.061 19.94C14.9986 19.9437 14.9363 19.948 14.874 19.953C14.808 19.958 14.744 19.966 14.678 19.974C14.5706 19.9894 14.4624 19.9981 14.354 20H5.637C5.261 20 4.902 19.962 4.555 19.905L4.518 19.899C3.165 19.666 2.042 19.013 1.255 18.029C1.25 18.029 1.248 18.025 1.245 18.019C1.24281 18.0153 1.24012 18.0119 1.237 18.009C0.447 17.013 0 15.674 0 14.102V5.888C0 2.362 2.27 0 5.637 0H14.353ZM9 6.515C9 7.87 7.866 9 6.505 9C5.92952 8.99519 5.37302 8.79356 4.92803 8.42861C4.48304 8.06367 4.17636 7.55741 4.059 6.994C4.02015 6.82169 4.00036 6.64563 4 6.469C4.00039 6.14403 4.06486 5.82234 4.1897 5.52231C4.31454 5.22228 4.49732 4.94981 4.72757 4.72049C4.95782 4.49117 5.23102 4.3095 5.53155 4.18587C5.83208 4.06224 6.15404 3.99908 6.479 4C7.176 4 7.809 4.293 8.261 4.761C8.715 5.213 9 5.836 9 6.515Z" fill="#A3A3A3"/>
</svg>
