<svg width="23" height="23" viewBox="0 0 23 23" fill="none" xmlns="http://www.w3.org/2000/svg">
<rect x="0.5" y="22.5" width="22" height="22" rx="11" transform="rotate(-90 0.5 22.5)" fill="white"/>
<rect x="0.5" y="22.5" width="22" height="22" rx="11" transform="rotate(-90 0.5 22.5)" stroke="black"/>
<path d="M12.7482 15.3301L12.2528 15.8385C12.043 16.0538 11.7037 16.0538 11.4962 15.8385L7.15735 11.3882C6.94755 11.1729 6.94755 10.8248 7.15735 10.6118L11.4939 6.16147C11.7037 5.94617 12.043 5.94617 12.2505 6.16147L12.746 6.66995C12.958 6.88754 12.9536 7.24256 12.7371 7.45557L10.0499 10.0827H16.4643C16.7612 10.0827 17 10.3278 17 10.6324V11.3653C17 11.6699 16.7612 11.915 16.4643 11.915H10.0499L12.7393 14.5444C12.958 14.7574 12.9625 15.1125 12.7482 15.3301Z" fill="black"/>
</svg>
