<svg width="16" height="16" viewBox="0 0 16 16" fill="none" xmlns="http://www.w3.org/2000/svg">
<path d="M11.4 1.86665C10.1333 0.866646 8.53333 0.466646 6.93333 0.733313C4.06666 1.33331 2.2 4.19998 2.8 7.06665C3 7.93331 3.4 8.73331 3.93333 9.39998C4.4 9.93331 4.66666 10.6 4.66666 11.3333V13.3333C4.66666 14.4666 5.53333 15.3333 6.66666 15.3333H9.33333C10.4667 15.3333 11.3333 14.4666 11.3333 13.3333V11.4666C11.3333 10.6666 11.6667 9.93331 12.1333 9.33331C14 7.06665 13.6667 3.73331 11.4 1.86665ZM7.33333 9.33331C7.33333 8.93331 7.6 8.66665 8 8.66665C8.4 8.66665 8.66666 8.93331 8.66666 9.33331V11.3333H7.33333V9.33331ZM10 13.3333C10 13.7333 9.73333 14 9.33333 14H6.66666C6.26666 14 6 13.7333 6 13.3333V12.6666H10V13.3333Z" fill="#3D6464"/>
</svg>
