<svg width="12" height="16" viewBox="0 0 12 16" fill="none" xmlns="http://www.w3.org/2000/svg">
<path d="M7.05219 12.1773C7.05219 12.1773 7.05219 12.1773 7.05219 12.1773C7.05219 12.2697 7.03524 12.362 7.0015 12.4491C6.96774 12.5363 6.91736 12.6179 6.8515 12.688C6.78557 12.7583 6.70521 12.8159 6.61399 12.8555C6.52415 12.8945 6.42668 12.9147 6.32745 12.9139M7.05219 12.1773L6.33008 12.4139M7.05219 12.1773V11.5307C7.23074 11.3577 7.36754 11.1438 7.45297 10.9074C7.57112 10.5806 7.58696 10.2228 7.49898 9.8864C7.41095 9.54986 7.22187 9.24658 6.95297 9.02679C6.68333 8.80639 6.34883 8.68309 6 8.68309C5.65117 8.68309 5.31667 8.80639 5.04703 9.02679C4.77813 9.24658 4.58905 9.54986 4.50102 9.8864C4.41304 10.2228 4.42888 10.5806 4.54703 10.9074C4.63246 11.1438 4.76926 11.3577 4.94781 11.5307L7.05219 12.1773ZM6.32745 12.9139C6.32579 12.9139 6.32413 12.9139 6.32247 12.9139L6.33008 12.4139M6.32745 12.9139H6.33008V12.4139M6.32745 12.9139H5.67255M6.33008 12.4139H5.66992M5.67255 12.9139C5.67421 12.9139 5.67587 12.9139 5.67753 12.9139L5.66992 12.4139M5.67255 12.9139H5.66992V12.4139M5.67255 12.9139C5.57332 12.9147 5.47585 12.8945 5.38601 12.8555C5.29479 12.8159 5.21443 12.7583 5.14849 12.688C5.08263 12.6178 5.03225 12.5363 4.9985 12.4491C4.96476 12.362 4.94781 12.2697 4.94781 12.1773C4.94781 12.1773 4.94781 12.1773 4.94781 12.1773L5.44781 12.1773L5.66992 12.4139M3.06915 6.4016V6.9016H3.56915H10.6828C10.8865 6.9016 11.0905 6.98868 11.2473 7.15806C11.4052 7.32873 11.5 7.56794 11.5 7.8247L11.5 14.5758C11.5 14.576 11.5 14.5761 11.5 14.5762C11.4993 14.8333 11.404 15.0726 11.2457 15.2433C11.0884 15.4128 10.8839 15.5 10.6797 15.5H1.31722C1.1135 15.5 0.909519 15.4129 0.752745 15.2435C0.594767 15.0729 0.5 14.8337 0.5 14.5769V7.8247C0.5 7.56794 0.594767 7.32873 0.752745 7.15806C0.909518 6.98868 1.1135 6.9016 1.31722 6.9016H1.68123H2.18123V6.4016V4.77854H2.18125L2.18122 4.77448C2.17221 3.66574 2.56186 2.60275 3.25857 1.80788C3.95352 1.01502 4.89745 0.552084 5.88882 0.502222C6.85765 0.467693 7.80873 0.837015 8.5433 1.54594C8.94063 1.92939 9.17034 2.21525 9.31823 2.5214C9.45224 2.79884 9.5345 3.12523 9.57939 3.60954H8.6671C8.63094 3.32989 8.58052 3.09095 8.44647 2.87315C8.33019 2.6842 8.15472 2.52737 7.98174 2.37277C7.95367 2.34769 7.92567 2.32266 7.898 2.29757C7.33265 1.78485 6.60124 1.51609 5.84983 1.55638L5.84983 1.55631L5.84156 1.55689C5.06981 1.61111 4.35589 1.98323 3.84362 2.58254C3.33305 3.17987 3.05917 3.95903 3.06915 4.75845V6.4016Z" stroke="black"/>
</svg>
