<svg width="95" height="68" viewBox="0 0 95 68" fill="none" xmlns="http://www.w3.org/2000/svg">
<path d="M0.00588608 0.99871L2.36531 21.8037C3.51173 31.9126 12.0643 39.55 22.2379 39.55H41.784C53.5881 39.55 62.7632 29.2756 61.4331 17.5467C60.2996 7.55153 51.8432 6.81129e-09 41.784 6.81129e-09H0.88456C0.356121 -6.50983e-05 -0.0544357 0.466606 0.00588608 0.99871Z" fill="#F6ACC1"/>
<path d="M8.99548 0C9.70199 0 10.2962 0.536984 10.3769 1.24832L10.8288 5.23236C11.1814 8.34106 13.7782 10.6876 16.8658 10.6876H64.1828C67.8138 10.6876 70.6345 7.48161 70.2198 3.82577L69.8942 0.955476C69.8325 0.411002 69.3776 0 68.8368 0H8.99548Z" fill="#FCD4D0"/>
<path d="M27.4284 66.2727C17.1873 66.2727 8.88531 57.6928 8.88531 47.109C8.88531 36.5252 17.1873 27.9453 27.4284 27.9453C37.6695 27.9453 45.9715 36.5252 45.9715 47.109C45.9715 57.6928 37.6695 66.2727 27.4284 66.2727Z" fill="#573240"/>
<path d="M30.7046 27.9451C40.9458 27.9451 49.2482 36.5253 49.2482 47.1087C49.2482 57.6929 40.9458 66.2724 30.7046 66.2724C20.4635 66.2724 12.1617 57.6929 12.1617 47.1087C12.1617 36.5253 20.4635 27.9451 30.7046 27.9451ZM30.7046 53.7032C34.1524 53.7032 36.9468 50.8145 36.9468 47.252C36.9468 43.6894 34.1524 40.8007 30.7046 40.8007C27.2575 40.8007 24.4624 43.6894 24.4624 47.252C24.4624 50.8145 27.2575 53.7032 30.7046 53.7032Z" fill="#A9D8D5"/>
<path d="M27.9667 31.3291H29.5495C29.7261 31.3291 29.8693 31.1841 29.8693 31.0051V30.983C29.8693 30.804 29.7261 30.6589 29.5495 30.6589H27.9667C27.7901 30.6589 27.6469 30.804 27.6469 30.983V31.0051C27.6469 31.184 27.7901 31.3291 27.9667 31.3291Z" fill="white"/>
<path d="M25.4154 38.1851H26.9982C27.1748 38.1851 27.318 38.04 27.318 37.8611V37.8389C27.318 37.6599 27.1748 37.5149 26.9982 37.5149H25.4154C25.2388 37.5149 25.0956 37.6599 25.0956 37.8389V37.8611C25.0956 38.04 25.2388 38.1851 25.4154 38.1851Z" fill="#573240"/>
<path d="M38.6231 34.0963L39.9615 34.9528C40.1108 35.0484 40.3083 35.0031 40.4025 34.8518L40.4142 34.8331C40.5085 34.6818 40.4639 34.4816 40.3146 34.3861L38.9762 33.5296C38.8269 33.434 38.6294 33.4793 38.5352 33.6306L38.5235 33.6493C38.4292 33.8006 38.4738 34.0008 38.6231 34.0963Z" fill="white"/>
<path d="M18.0089 37.3626L18.8727 38.7068C18.969 38.8568 19.1671 38.8992 19.315 38.8016L19.3333 38.7895C19.4813 38.6918 19.5232 38.4911 19.4268 38.3412L18.563 36.9969C18.4667 36.8469 18.2686 36.8045 18.1207 36.9021L18.1024 36.9142C17.9544 37.0118 17.9125 37.2126 18.0089 37.3626Z" fill="white"/>
<path d="M31.2437 37.1712L32.5821 38.0277C32.7314 38.1233 32.9289 38.0781 33.0231 37.9268L33.0348 37.908C33.1291 37.7567 33.0845 37.5566 32.9352 37.4611L31.5968 36.6045C31.4475 36.509 31.25 36.5542 31.1558 36.7055L31.1441 36.7243C31.0499 36.8756 31.0945 37.0757 31.2437 37.1712Z" fill="white"/>
<path d="M34.6185 32.7172L35.5413 31.4137C35.6442 31.2684 35.6113 31.0659 35.4678 30.9616L35.45 30.9487C35.3066 30.8444 35.1068 30.8777 35.0039 31.0231L34.0812 32.3266C33.9782 32.472 34.0111 32.6744 34.1546 32.7787L34.1724 32.7916C34.3158 32.8959 34.5156 32.8626 34.6185 32.7172Z" fill="#573240"/>
<path d="M21.8051 37.7143L22.7279 36.4108C22.8308 36.2654 22.7979 36.063 22.6544 35.9587L22.6366 35.9458C22.4932 35.8415 22.2934 35.8748 22.1905 36.0202L21.2678 37.3237C21.1648 37.469 21.1977 37.6715 21.3412 37.7758L21.359 37.7887C21.5024 37.893 21.7022 37.8597 21.8051 37.7143Z" fill="#FF6E00"/>
<path d="M41.6897 38.2222L42.9204 37.2134C43.0577 37.1008 43.0789 36.8968 42.9679 36.7576L42.9542 36.7404C42.8431 36.6013 42.6419 36.5797 42.5046 36.6922L41.2739 37.701C41.1366 37.8136 41.1153 38.0176 41.2263 38.1568L41.2401 38.174C41.3511 38.3131 41.5524 38.3348 41.6897 38.2222Z" fill="#FF6E00"/>
<path d="M22.5964 33.6616L23.8271 32.6528C23.9644 32.5402 23.9858 32.3362 23.8747 32.1971L23.8609 32.1799C23.7499 32.0407 23.5486 32.0191 23.4113 32.1317L22.1805 33.1405C22.0433 33.253 22.0219 33.457 22.133 33.5962L22.1467 33.6135C22.2578 33.7525 22.4591 33.7741 22.5964 33.6616Z" fill="white"/>
<path d="M37.0665 37.8331L36.797 36.2523C36.7669 36.076 36.6015 35.9577 36.4275 35.9882L36.406 35.9919C36.2319 36.0224 36.1153 36.1901 36.1453 36.3664L36.4148 37.9472C36.4449 38.1235 36.6103 38.2418 36.7843 38.2113L36.8059 38.2075C36.9799 38.1771 37.0965 38.0095 37.0665 37.8331Z" fill="#F1B104"/>
<path d="M38.9878 43.4225L38.7183 41.8417C38.6883 41.6654 38.5229 41.5471 38.3488 41.5775L38.3273 41.5813C38.1533 41.6118 38.0366 41.7794 38.0667 41.9558L38.3362 43.5365C38.3663 43.7128 38.5317 43.8311 38.7057 43.8007L38.7272 43.7969C38.9012 43.7664 39.0179 43.5988 38.9878 43.4225Z" fill="#F1B104"/>
<path d="M31.8773 34.0033L30.634 33.0104C30.4953 32.8997 30.2943 32.9239 30.1849 33.0644L30.1714 33.0819C30.0621 33.2224 30.0859 33.4261 30.2246 33.537L31.4679 34.5298C31.6066 34.6405 31.8076 34.6164 31.917 34.4758L31.9305 34.4585C32.0398 34.3178 32.016 34.1141 31.8773 34.0033Z" fill="#FF6E00"/>
<path d="M26.91 34.7359L26.6405 33.1552C26.6105 32.9788 26.4451 32.8605 26.271 32.891L26.2495 32.8948C26.0755 32.9253 25.9588 33.0929 25.9889 33.2693L26.2584 34.85C26.2884 35.0263 26.4539 35.1446 26.6279 35.1142L26.6494 35.1104C26.8234 35.0799 26.9401 34.9122 26.91 34.7359Z" fill="#F1B104"/>
<path d="M19.5166 57.3614L18.575 56.072C18.4699 55.9281 18.2697 55.8978 18.1278 56.0042L18.1102 56.0175C17.9683 56.1239 17.9383 56.3268 18.0434 56.4707L18.985 57.7601C19.09 57.9039 19.2903 57.9343 19.4322 57.8278L19.4498 57.8147C19.5917 57.7082 19.6216 57.5053 19.5166 57.3614Z" fill="white"/>
<path d="M25.7358 54.9159L24.7942 53.6264C24.6892 53.4826 24.4889 53.4522 24.347 53.5587L24.3294 53.5719C24.1875 53.6784 24.1576 53.8813 24.2626 54.0251L25.2043 55.3146C25.3093 55.4584 25.5095 55.4887 25.6514 55.3823L25.669 55.3691C25.8109 55.2626 25.8409 55.0597 25.7358 54.9159Z" fill="#573240"/>
<path d="M15.3726 47.0318L15.2558 45.432C15.2427 45.2535 15.0894 45.1195 14.9133 45.1327L14.8915 45.1344C14.7154 45.1476 14.5832 45.3029 14.5962 45.4814L14.7131 47.0813C14.7261 47.2597 14.8794 47.3937 15.0555 47.3805L15.0773 47.3789C15.2534 47.3656 15.3857 47.2102 15.3726 47.0318Z" fill="white"/>
<path d="M24.1 41.9959L23.9832 40.3961C23.9701 40.2176 23.8168 40.0836 23.6407 40.0968L23.6189 40.0985C23.4428 40.1117 23.3106 40.2671 23.3237 40.4455L23.4405 42.0454C23.4536 42.2238 23.6068 42.3578 23.783 42.3446L23.8048 42.343C23.9808 42.3298 24.113 42.1743 24.1 41.9959Z" fill="white"/>
<path d="M29.2968 62.94L29.8492 61.4366C29.9108 61.2689 29.8266 61.0823 29.6611 61.0199L29.6406 61.0122C29.4752 60.9497 29.2911 61.035 29.2294 61.2027L28.677 62.706C28.6154 62.8738 28.6996 63.0604 28.8651 63.1228L28.8856 63.1305C29.0511 63.193 29.2351 63.1077 29.2968 62.94Z" fill="white"/>
<path d="M22.1992 51.2166L22.0823 49.6168C22.0693 49.4383 21.916 49.3043 21.7399 49.3175L21.7181 49.3192C21.542 49.3324 21.4098 49.4878 21.4229 49.6662L21.5397 51.2661C21.5527 51.4445 21.706 51.5785 21.8822 51.5653L21.9039 51.5637C22.08 51.5504 22.2122 51.395 22.1992 51.2166Z" fill="white"/>
<path d="M16.6605 51.1155L15.0778 51.1392C14.9013 51.1419 14.7603 51.2891 14.7628 51.468L14.7632 51.4901C14.7658 51.669 14.911 51.812 15.0876 51.8093L16.6703 51.7856C16.8468 51.783 16.9878 51.6358 16.9852 51.4569L16.9849 51.4347C16.9823 51.2558 16.8371 51.1129 16.6605 51.1155Z" fill="#573240"/>
<path d="M31.9443 56.5667L30.3616 56.5904C30.185 56.5931 30.044 56.7402 30.0466 56.9192L30.0469 56.9414C30.0496 57.1203 30.1948 57.2632 30.3713 57.2606L31.9541 57.2369C32.1306 57.2342 32.2716 57.087 32.2691 56.9081L32.2687 56.886C32.2661 56.7069 32.1209 56.564 31.9443 56.5667Z" fill="#573240"/>
<path d="M28.2471 58.5794L26.6644 58.6031C26.4879 58.6058 26.3468 58.7529 26.3494 58.9318L26.3497 58.954C26.3524 59.133 26.4976 59.2759 26.6741 59.2732L28.2569 59.2495C28.4334 59.2468 28.5744 59.0996 28.5719 58.9207L28.5715 58.8986C28.5688 58.7196 28.4236 58.5767 28.2471 58.5794Z" fill="#FF6E00"/>
<path d="M16.82 42.0799L15.2877 41.6774C15.1168 41.6325 14.9423 41.7366 14.898 41.9098L14.8925 41.9313C14.8482 42.1045 14.9509 42.2813 15.1218 42.3262L16.6541 42.7287C16.825 42.7736 16.9995 42.6696 17.0437 42.4963L17.0492 42.4748C17.0936 42.3017 16.9909 42.1248 16.82 42.0799Z" fill="#FF6E00"/>
<path d="M22.1928 43.9185L20.6605 43.5161C20.4896 43.4711 20.3151 43.5752 20.2708 43.7484L20.2653 43.7699C20.221 43.9432 20.3236 44.12 20.4946 44.1648L22.0268 44.5673C22.1978 44.6122 22.3723 44.5082 22.4165 44.335L22.422 44.3135C22.4664 44.1403 22.3637 43.9635 22.1928 43.9185Z" fill="#FF6E00"/>
<path d="M24.561 60.3494L23.0287 59.947C22.8578 59.9021 22.6833 60.0061 22.639 60.1793L22.6335 60.2008C22.5892 60.374 22.6918 60.5509 22.8628 60.5957L24.395 60.9982C24.566 61.0431 24.7405 60.9391 24.7847 60.7659L24.7902 60.7444C24.8345 60.5711 24.7318 60.3943 24.561 60.3494Z" fill="white"/>
<path d="M19.2612 46.0765L18.1678 47.2364C18.0458 47.3659 18.0504 47.5709 18.1781 47.6946L18.1939 47.7099C18.3216 47.8335 18.524 47.8288 18.646 47.6995L19.7394 46.5395C19.8614 46.4102 19.8568 46.205 19.7291 46.0814L19.7132 46.0661C19.5855 45.9425 19.3832 45.9471 19.2612 46.0765Z" fill="#F1B104"/>
<path d="M19.3122 52.5828L19.2643 54.1862C19.2589 54.3651 19.3977 54.5145 19.5741 54.5199L19.596 54.5206C19.7725 54.526 19.9199 54.3853 19.9252 54.2065L19.9731 52.603C19.9785 52.4241 19.8397 52.2748 19.6633 52.2694L19.6414 52.2687C19.4649 52.2633 19.3175 52.4039 19.3122 52.5828Z" fill="#FF6E00"/>
<path d="M22.8479 56.1929L21.7545 57.3529C21.6325 57.4823 21.6371 57.6874 21.7648 57.811L21.7806 57.8263C21.9083 57.9499 22.1107 57.9452 22.2327 57.8158L23.3261 56.6559C23.4481 56.5265 23.4435 56.3214 23.3157 56.1978L23.2999 56.1825C23.1723 56.0589 22.9699 56.0636 22.8479 56.1929Z" fill="#F1B104"/>
<path d="M44.8229 51.9107L44.126 53.351C44.0483 53.5117 44.1137 53.7058 44.2723 53.7846L44.2919 53.7943C44.4505 53.8731 44.6421 53.8068 44.7198 53.6461L45.4167 52.2058C45.4945 52.0451 45.429 51.851 45.2704 51.7722L45.2508 51.7624C45.0922 51.6836 44.9007 51.75 44.8229 51.9107Z" fill="white"/>
<path d="M39.8205 47.4382L39.1235 48.8786C39.0458 49.0392 39.1112 49.2334 39.2698 49.3122L39.2895 49.3219C39.448 49.4007 39.6396 49.3344 39.7173 49.1737L40.4142 47.7334C40.492 47.5727 40.4265 47.3785 40.268 47.2998L40.2483 47.29C40.0898 47.2112 39.8982 47.2776 39.8205 47.4382Z" fill="#573240"/>
<path d="M37.679 60.3882L36.3309 61.2289C36.1806 61.3227 36.1337 61.5223 36.2262 61.6747L36.2377 61.6936C36.3302 61.846 36.5271 61.8935 36.6775 61.7997L38.0256 60.9589C38.176 60.8652 38.2229 60.6656 38.1303 60.5132L38.1189 60.4943C38.0263 60.3419 37.8294 60.2944 37.679 60.3882Z" fill="white"/>
<path d="M44.6891 40.4277L43.1179 40.6218C42.9426 40.6435 42.8178 40.805 42.8392 40.9826L42.8419 41.0046C42.8633 41.1823 43.0226 41.3087 43.1979 41.287L44.7691 41.0929C44.9444 41.0713 45.0692 40.9097 45.0478 40.7321L45.0452 40.7101C45.0238 40.5325 44.8645 40.4061 44.6891 40.4277Z" fill="white"/>
<path d="M38.2064 52.3201L36.8583 53.1609C36.7079 53.2546 36.661 53.4542 36.7536 53.6066L36.765 53.6255C36.8576 53.7779 37.0545 53.8255 37.2049 53.7316L38.553 52.8909C38.7033 52.7971 38.7502 52.5975 38.6577 52.4451L38.6462 52.4262C38.5537 52.2738 38.3568 52.2263 38.2064 52.3201Z" fill="white"/>
<path d="M40.6647 57.3521L41.4131 58.7656C41.4967 58.9232 41.6905 58.9825 41.8461 58.8979L41.8653 58.8874C42.0209 58.8027 42.0794 58.6063 41.9959 58.4486L41.2474 57.0351C41.1639 56.8775 40.9701 56.8182 40.8145 56.9028L40.7952 56.9133C40.6396 56.998 40.5812 57.1944 40.6647 57.3521Z" fill="#573240"/>
<path d="M41.8784 43.491L42.6269 44.9045C42.7104 45.0622 42.9042 45.1214 43.0598 45.0368L43.0791 45.0263C43.2347 44.9417 43.2931 44.7452 43.2096 44.5875L42.4612 43.1741C42.3777 43.0164 42.1838 42.9571 42.0282 43.0418L42.009 43.0522C41.8534 43.1369 41.7949 43.3333 41.8784 43.491Z" fill="#FF6E00"/>
<path d="M32.6743 61.3629L33.0262 62.927C33.0654 63.1015 33.2368 63.2107 33.409 63.1709L33.4303 63.166C33.6025 63.1262 33.7102 62.9525 33.6709 62.7781L33.3191 61.214C33.2798 61.0395 33.1085 60.9303 32.9363 60.9701L32.915 60.975C32.7428 61.0147 32.6351 61.1885 32.6743 61.3629Z" fill="#FF6E00"/>
<path d="M45.5619 45.5473L45.9138 47.1114C45.953 47.2859 46.1244 47.3951 46.2966 47.3553L46.3179 47.3503C46.4901 47.3106 46.5978 47.1369 46.5585 46.9624L46.2067 45.3983C46.1674 45.2238 45.9961 45.1146 45.8239 45.1544L45.8026 45.1594C45.6304 45.1992 45.5227 45.3728 45.5619 45.5473Z" fill="white"/>
<path d="M35.0549 57.327L36.574 57.7778C36.7434 57.8281 36.9211 57.7296 36.9707 57.5579L36.9768 57.5366C37.0264 57.3648 36.9293 57.1848 36.7598 57.1346L35.2407 56.6838C35.0713 56.6335 34.8937 56.732 34.8441 56.9037L34.8379 56.925C34.7883 57.0968 34.8854 57.2768 35.0549 57.327Z" fill="#F1B104"/>
<path d="M40.7312 54.29L42.1582 53.5959C42.3174 53.5185 42.3845 53.3249 42.3081 53.1636L42.2986 53.1436C42.2222 52.9823 42.0313 52.9142 41.872 52.9917L40.445 53.6859C40.2858 53.7633 40.2187 53.9568 40.2951 54.1182L40.3046 54.1382C40.381 54.2994 40.572 54.3674 40.7312 54.29Z" fill="#FF6E00"/>
<path d="M42.468 48.8041L43.959 49.2466C44.1362 49.2992 44.2383 49.4858 44.187 49.6634C44.1357 49.841 43.9504 49.9423 43.7732 49.8897L42.2822 49.4473C42.105 49.3947 42.0029 49.2081 42.0542 49.0305C42.1055 48.8529 42.2908 48.7516 42.468 48.8041Z" fill="#F1B104"/>
<path d="M69.1317 19.1165C79.8675 19.1165 88.5708 28.1114 88.5708 39.2059C88.5708 50.3011 79.8675 59.2961 69.1317 59.2961C58.3959 59.2961 49.6927 50.3011 49.6927 39.2059C49.6927 28.1114 58.3959 19.1165 69.1317 19.1165ZM69.1317 45.4433C72.3843 45.4433 75.0216 42.7183 75.0216 39.3563C75.0216 35.9942 72.3843 33.2687 69.1317 33.2687C65.8786 33.2687 63.2412 35.9943 63.2412 39.3563C63.2412 42.7182 65.8786 45.4433 69.1317 45.4433Z" fill="#573240"/>
<path d="M71.7658 19.1165C82.5016 19.1165 91.2048 28.1114 91.2048 39.2059C91.2048 50.3011 82.5016 59.2961 71.7658 59.2961C61.03 59.2961 52.3267 50.3011 52.3267 39.2059C52.3267 28.1114 61.03 19.1165 71.7658 19.1165ZM71.7658 46.1188C75.3793 46.1188 78.3093 43.0914 78.3093 39.3563C78.3093 35.6212 75.3793 32.5932 71.7658 32.5932C68.1516 32.5932 65.2216 35.6212 65.2216 39.3563C65.2216 43.0914 68.1516 46.1188 71.7658 46.1188Z" fill="#FF6E00"/>
<path d="M69.1822 23.2572H70.9174C71.094 23.2572 71.2372 23.1121 71.2372 22.9331V22.865C71.2372 22.6861 71.094 22.541 70.9174 22.541H69.1822C69.0056 22.541 68.8625 22.6861 68.8625 22.865V22.9331C68.8625 23.112 69.0056 23.2572 69.1822 23.2572Z" fill="white"/>
<path d="M58.9312 38.1051H60.6664C60.843 38.1051 60.9861 37.96 60.9861 37.781V37.7129C60.9861 37.534 60.843 37.3889 60.6664 37.3889H58.9312C58.7546 37.3889 58.6115 37.534 58.6115 37.7129V37.781C58.6115 37.9599 58.7546 38.1051 58.9312 38.1051Z" fill="#A9D8D5"/>
<path d="M55.0166 35.9351L56.6821 36.4283C56.8516 36.4785 57.0291 36.3799 57.0787 36.2081L57.0975 36.1428C57.147 35.971 57.0498 35.7911 56.8803 35.7409L55.2147 35.2477C55.0453 35.1975 54.8677 35.2961 54.8182 35.4678L54.7994 35.5332C54.7498 35.705 54.8471 35.885 55.0166 35.9351Z" fill="#573240"/>
<path d="M80.6002 37.4647H82.3355C82.5121 37.4647 82.6552 37.3196 82.6552 37.1407V37.0726C82.6552 36.8936 82.5121 36.7485 82.3355 36.7485H80.6002C80.4236 36.7485 80.2805 36.8936 80.2805 37.0726V37.1407C80.2805 37.3196 80.4236 37.4647 80.6002 37.4647Z" fill="white"/>
<path d="M61.785 35.2964L63.454 34.8153C63.6239 34.7663 63.7224 34.5871 63.6741 34.415L63.6557 34.3495C63.6074 34.1773 63.4305 34.0775 63.2607 34.1264L61.5916 34.6076C61.4218 34.6565 61.3233 34.8357 61.3716 35.0079L61.39 35.0734C61.4384 35.2456 61.6152 35.3454 61.785 35.2964Z" fill="#F1B104"/>
<path d="M85.8435 32.5951H87.5787C87.7553 32.5951 87.8985 32.45 87.8985 32.271V32.2029C87.8985 32.0239 87.7553 31.8789 87.5787 31.8789H85.8435C85.6669 31.8789 85.5238 32.0239 85.5238 32.2029V32.271C85.5238 32.4499 85.667 32.5951 85.8435 32.5951Z" fill="#F1B104"/>
<path d="M67.3017 30.0843H69.037C69.2136 30.0843 69.3567 29.9393 69.3567 29.7603V29.6922C69.3567 29.5132 69.2136 29.3682 69.037 29.3682H67.3017C67.1252 29.3682 66.982 29.5132 66.982 29.6922V29.7603C66.982 29.9393 67.1252 30.0843 67.3017 30.0843Z" fill="#573240"/>
<path d="M58.9893 28.2657L60.492 27.3864C60.6449 27.2969 60.6973 27.0987 60.6091 26.9437L60.5755 26.8847C60.4872 26.7298 60.2917 26.6766 60.1387 26.7661L58.6359 27.6454C58.4831 27.7349 58.4306 27.9331 58.5189 28.0881L58.5525 28.1471C58.6408 28.3021 58.8363 28.3551 58.9893 28.2657Z" fill="#F6ACC1"/>
<path d="M79.6535 26.3951L81.1207 27.3341C81.27 27.4297 81.4675 27.3844 81.5617 27.2331L81.5976 27.1755C81.6919 27.0242 81.6473 26.824 81.498 26.7285L80.0308 25.7896C79.8815 25.694 79.684 25.7393 79.5898 25.8906L79.5539 25.9482C79.4596 26.0995 79.5042 26.2996 79.6535 26.3951Z" fill="white"/>
<path d="M57.7388 30.9762L58.6857 32.45C58.7821 32.5999 58.9801 32.6424 59.1281 32.5447L59.1844 32.5075C59.3324 32.4099 59.3742 32.2091 59.2779 32.0592L58.331 30.5855C58.2346 30.4356 58.0366 30.3931 57.8886 30.4908L57.8323 30.5279C57.6844 30.6256 57.6425 30.8263 57.7388 30.9762Z" fill="white"/>
<path d="M72.0008 30.1805L73.468 31.1195C73.6173 31.2151 73.8148 31.1698 73.909 31.0185L73.9449 30.9609C74.0392 30.8096 73.9946 30.6095 73.8453 30.514L72.3781 29.575C72.2288 29.4794 72.0313 29.5247 71.9371 29.676L71.9012 29.7336C71.8069 29.8848 71.8515 30.085 72.0008 30.1805Z" fill="white"/>
<path d="M76.8526 29.8872L77.4525 28.2371C77.5135 28.0692 77.4287 27.8829 77.2631 27.821L77.2 27.7974C77.0343 27.7356 76.8505 27.8215 76.7894 27.9894L76.1895 29.6395C76.1285 29.8075 76.2133 29.9937 76.379 30.0556L76.4421 30.0792C76.6077 30.1411 76.7915 30.0552 76.8526 29.8872Z" fill="#F1B104"/>
<path d="M76.2993 24.7591L77.3109 23.3302C77.4138 23.1849 77.3809 22.9824 77.2374 22.8781L77.1828 22.8384C77.0394 22.7341 76.8396 22.7673 76.7367 22.9128L75.7252 24.3417C75.6222 24.4871 75.6551 24.6896 75.7986 24.7939L75.8532 24.8336C75.9967 24.9378 76.1964 24.9045 76.2993 24.7591Z" fill="#573240"/>
<path d="M61.5808 31.0077L62.5923 29.5788C62.6952 29.4334 62.6624 29.2309 62.5189 29.1266L62.4643 29.0869C62.3208 28.9826 62.1211 29.0159 62.0181 29.1613L61.0066 30.5902C60.9037 30.7356 60.9365 30.9381 61.08 31.0424L61.1346 31.0821C61.2782 31.1864 61.4779 31.1531 61.5808 31.0077Z" fill="#573240"/>
<path d="M83.8511 30.0703L85.2002 28.9644C85.3375 28.8518 85.3588 28.6479 85.2478 28.5087L85.2055 28.4557C85.0944 28.3166 84.8932 28.295 84.7559 28.4076L83.4067 29.5134C83.2694 29.626 83.2482 29.83 83.3592 29.9692L83.4014 30.0221C83.5124 30.1612 83.7138 30.1828 83.8511 30.0703Z" fill="#A9D8D5"/>
<path d="M63.4486 25.7644L64.7978 24.6585C64.9351 24.5459 64.9563 24.3419 64.8453 24.2028L64.8031 24.1498C64.692 24.0107 64.4907 23.9891 64.3534 24.1016L63.0042 25.2075C62.8669 25.3201 62.8457 25.5241 62.9567 25.6633L62.9989 25.7162C63.11 25.8553 63.3113 25.8769 63.4486 25.7644Z" fill="#F1B104"/>
<path d="M86.8149 37.6157L87.8889 36.2344C87.9981 36.0939 87.9743 35.8902 87.8356 35.7794L87.7828 35.7372C87.6441 35.6265 87.4431 35.6507 87.3338 35.7912L86.2598 37.1725C86.1505 37.3131 86.1744 37.5168 86.3131 37.6276L86.3659 37.6697C86.5046 37.7804 86.7056 37.7563 86.8149 37.6157Z" fill="#A9D8D5"/>
<path d="M80.7846 32.1234L80.4892 30.3905C80.4591 30.2142 80.2937 30.0959 80.1197 30.1264L80.0534 30.138C79.8794 30.1684 79.7628 30.3361 79.7928 30.5124L80.0883 32.2453C80.1183 32.4217 80.2837 32.5399 80.4578 32.5095L80.524 32.4979C80.698 32.4673 80.8147 32.2997 80.7846 32.1234Z" fill="#F6ACC1"/>
<path d="M74.0867 26.8249L72.7238 25.7365C72.5851 25.6258 72.3841 25.6499 72.2747 25.7905L72.2332 25.844C72.1239 25.9846 72.1477 26.1883 72.2864 26.2991L73.6493 27.3875C73.788 27.4983 73.989 27.4741 74.0984 27.3335L74.1399 27.28C74.2492 27.1395 74.2254 26.9357 74.0867 26.8249Z" fill="#A9D8D5"/>
<path d="M84.6892 34.8352L83.3263 33.7468C83.1876 33.636 82.9866 33.6602 82.8773 33.8007L82.8357 33.8543C82.7264 33.9948 82.7503 34.1985 82.889 34.3093L84.2519 35.3978C84.3906 35.5085 84.5916 35.4843 84.7009 35.3438L84.7425 35.2903C84.8517 35.1497 84.8279 34.946 84.6892 34.8352Z" fill="#573240"/>
<path d="M68.0788 26.9191L67.7834 25.1861C67.7533 25.0098 67.5879 24.8916 67.4139 24.922L67.3476 24.9336C67.1736 24.9641 67.0569 25.1317 67.087 25.3081L67.3824 27.041C67.4125 27.2174 67.5779 27.3356 67.752 27.3051L67.8182 27.2935C67.9922 27.2631 68.1089 27.0954 68.0788 26.9191Z" fill="#F6ACC1"/>
<path d="M66.0327 32.2917L64.8776 30.9794C64.76 30.8459 64.5579 30.8342 64.4261 30.9533L64.376 30.9987C64.2442 31.1178 64.2327 31.3226 64.3502 31.4562L65.5053 32.7685C65.6229 32.902 65.825 32.9138 65.9567 32.7946L66.0069 32.7492C66.1387 32.6302 66.1502 32.4253 66.0327 32.2917Z" fill="#A9D8D5"/>
<path d="M74.0779 55.4786L72.3429 55.5054C72.1664 55.5081 72.0255 55.6554 72.0282 55.8343L72.0292 55.9024C72.0319 56.0814 72.1772 56.2241 72.3537 56.2214L74.0887 56.1946C74.2652 56.1918 74.4062 56.0446 74.4035 55.8657L74.4025 55.7976C74.3998 55.6187 74.2545 55.4758 74.0779 55.4786Z" fill="white"/>
<path d="M84.1043 40.4756L82.3693 40.5024C82.1928 40.5052 82.0519 40.6524 82.0546 40.8314L82.0556 40.8995C82.0583 41.0784 82.2036 41.2212 82.3801 41.2185L84.1151 41.1917C84.2916 41.189 84.4326 41.0417 84.4299 40.8628L84.4289 40.7947C84.4262 40.6157 84.2809 40.4729 84.1043 40.4756Z" fill="#A9D8D5"/>
<path d="M88.0513 42.5841L86.3785 42.1167C86.2082 42.0691 86.0322 42.1704 85.9852 42.343L85.9674 42.4087C85.9204 42.5812 86.0204 42.7596 86.1906 42.8072L87.8634 43.2746C88.0337 43.3221 88.2097 43.2208 88.2566 43.0483L88.2745 42.9827C88.3214 42.8101 88.2214 42.6317 88.0513 42.5841Z" fill="#573240"/>
<path d="M62.4475 41.4505L60.7125 41.4773C60.5359 41.48 60.395 41.6273 60.3977 41.8062L60.3987 41.8743C60.4014 42.0532 60.5467 42.1961 60.7233 42.1933L62.4583 42.1665C62.6348 42.1638 62.7757 42.0165 62.773 41.8376L62.772 41.7695C62.7694 41.5906 62.6241 41.4478 62.4475 41.4505Z" fill="white"/>
<path d="M81.293 43.3271L79.6314 43.8339C79.4623 43.8855 79.3665 44.0662 79.4174 44.2376L79.4368 44.3028C79.4877 44.4741 79.666 44.5712 79.8351 44.5197L81.4967 44.0128C81.6658 43.9613 81.7616 43.7805 81.7107 43.6092L81.6913 43.5439C81.6404 43.3726 81.4621 43.2755 81.293 43.3271Z" fill="#F1B104"/>
<path d="M57.2778 46.3992L55.5428 46.426C55.3663 46.4288 55.2254 46.576 55.2281 46.7549L55.2291 46.823C55.2318 47.002 55.3771 47.1448 55.5536 47.1421L57.2886 47.1152C57.4652 47.1125 57.6061 46.9652 57.6034 46.7863L57.6024 46.7182C57.5997 46.5393 57.4544 46.3965 57.2778 46.3992Z" fill="#F1B104"/>
<path d="M75.8554 48.6197L74.1204 48.6465C73.9438 48.6492 73.8029 48.7965 73.8056 48.9754L73.8066 49.0435C73.8093 49.2224 73.9546 49.3653 74.1312 49.3625L75.8662 49.3357C76.0427 49.333 76.1836 49.1857 76.1809 49.0068L76.1799 48.9387C76.1772 48.7598 76.032 48.6169 75.8554 48.6197Z" fill="#573240"/>
<path d="M84.1945 50.3145L82.7052 51.2169C82.5536 51.3087 82.5042 51.5077 82.5948 51.6613L82.6293 51.7198C82.7199 51.8734 82.9162 51.9234 83.0678 51.8316L84.5571 50.9292C84.7087 50.8373 84.7581 50.6384 84.6675 50.4848L84.633 50.4263C84.5424 50.2728 84.346 50.2227 84.1945 50.3145Z" fill="#F6ACC1"/>
<path d="M63.5606 52.5017L62.0794 51.5856C61.9287 51.4924 61.7319 51.5406 61.6399 51.6933L61.6049 51.7515C61.5129 51.9042 61.5605 52.1036 61.7112 52.1969L63.1924 53.113C63.3431 53.2062 63.5399 53.158 63.6319 53.0052L63.6669 52.9471C63.7589 52.7944 63.7113 52.595 63.5606 52.5017Z" fill="white"/>
<path d="M85.4038 47.5827L84.4349 46.1239C84.3363 45.9754 84.1376 45.936 83.9911 46.036L83.9354 46.074C83.7889 46.1739 83.75 46.3752 83.8486 46.5237L84.8176 47.9826C84.9162 48.131 85.1149 48.1704 85.2613 48.0705L85.3171 48.0325C85.4636 47.9325 85.5024 47.7312 85.4038 47.5827Z" fill="white"/>
<path d="M71.1554 48.5967L69.6742 47.6805C69.5235 47.5873 69.3268 47.6356 69.2348 47.7884L69.1998 47.8465C69.1078 47.9992 69.1554 48.1987 69.3061 48.2919L70.7872 49.2081C70.938 49.3013 71.1347 49.253 71.2267 49.1002L71.2617 49.0421C71.3537 48.8894 71.3061 48.6899 71.1554 48.5967Z" fill="white"/>
<path d="M66.3086 48.9672L65.7336 50.6265C65.675 50.7953 65.7627 50.9803 65.9293 51.0396L65.9927 51.0621C66.1593 51.1214 66.3418 51.0326 66.4003 50.8638L66.9753 49.2045C67.0338 49.0357 66.9462 48.8508 66.7796 48.7914L66.7162 48.7689C66.5495 48.7096 66.3671 48.7984 66.3086 48.9672Z" fill="#F1B104"/>
<path d="M66.9393 54.0863L65.9495 55.5306C65.8487 55.6776 65.8846 55.8795 66.0296 55.9816L66.0848 56.0205C66.2299 56.1226 66.4291 56.0862 66.5298 55.9391L67.5197 54.4948C67.6204 54.3478 67.5845 54.1459 67.4395 54.0438L67.3843 54.0049C67.2393 53.9029 67.0401 53.9393 66.9393 54.0863Z" fill="#573240"/>
<path d="M81.5619 47.6084L80.572 49.0528C80.4713 49.1998 80.5072 49.4017 80.6522 49.5038L80.7073 49.5426C80.8524 49.6447 81.0516 49.6083 81.1523 49.4613L82.1422 48.017C82.2429 47.87 82.207 47.6681 82.062 47.566L82.0069 47.5271C81.8618 47.4251 81.6626 47.4615 81.5619 47.6084Z" fill="#573240"/>
<path d="M59.3084 48.8909L57.976 50.0175C57.8403 50.1322 57.8222 50.3365 57.9353 50.4739L57.9783 50.5262C58.0915 50.6636 58.293 50.6821 58.4287 50.5674L59.7611 49.4408C59.8967 49.3261 59.9149 49.1218 59.8017 48.9844L59.7587 48.9321C59.6456 48.7947 59.444 48.7763 59.3084 48.8909Z" fill="#A9D8D5"/>
<path d="M79.773 52.884L78.4406 54.0107C78.305 54.1253 78.2868 54.3296 78.3999 54.4671L78.4429 54.5193C78.5561 54.6568 78.7577 54.6752 78.8933 54.5606L80.2257 53.4339C80.3613 53.3193 80.3795 53.115 80.2663 52.9775L80.2233 52.9252C80.1102 52.7879 79.9086 52.7695 79.773 52.884Z" fill="#F1B104"/>
<path d="M56.2312 41.3918L55.1781 42.7896C55.0709 42.9318 55.0978 43.1351 55.2381 43.2437L55.2915 43.2851C55.4319 43.3937 55.6325 43.3664 55.7397 43.2242L56.7928 41.8265C56.8999 41.6842 56.873 41.4809 56.7327 41.3723L56.6793 41.3309C56.539 41.2223 56.3383 41.2496 56.2312 41.3918Z" fill="#A9D8D5"/>
<path d="M62.3435 46.793L62.665 48.5211C62.6977 48.697 62.8649 48.8127 63.0384 48.7795L63.1045 48.7669C63.278 48.7338 63.3921 48.5643 63.3594 48.3885L63.0379 46.6603C63.0052 46.4845 62.838 46.3688 62.6645 46.4019L62.5984 46.4145C62.4249 46.4477 62.3107 46.6171 62.3435 46.793Z" fill="#F6ACC1"/>
<path d="M69.1206 51.9877L70.4998 53.055C70.6401 53.1636 70.8408 53.1363 70.9479 52.9941L70.9887 52.94C71.0959 52.7977 71.0689 52.5944 70.9286 52.4858L69.5495 51.4185C69.4091 51.31 69.2085 51.3372 69.1013 51.4794L69.0605 51.5335C68.9533 51.6758 68.9802 51.8791 69.1206 51.9877Z" fill="#A9D8D5"/>
<path d="M58.3986 44.1384L59.7778 45.2057C59.9182 45.3143 60.1188 45.287 60.2259 45.1448L60.2667 45.0906C60.3739 44.9484 60.347 44.745 60.2067 44.6364L58.8275 43.5692C58.6871 43.4606 58.4865 43.4879 58.3793 43.63L58.3386 43.6842C58.2313 43.8265 58.2583 44.0298 58.3986 44.1384Z" fill="#573240"/>
<path d="M75.126 51.7967L75.4475 53.5248C75.4802 53.7007 75.6474 53.8163 75.8209 53.7832L75.887 53.7706C76.0605 53.7374 76.1746 53.568 76.1419 53.3921L75.8204 51.664C75.7877 51.4881 75.6205 51.3724 75.447 51.4056L75.3809 51.4182C75.2074 51.4513 75.0933 51.6208 75.126 51.7967Z" fill="#F6ACC1"/>
<path d="M77.0913 46.3954L78.266 47.6896C78.3855 47.8214 78.5877 47.8299 78.7177 47.7088L78.7672 47.6627C78.8971 47.5415 78.9056 47.3366 78.786 47.2049L77.6114 45.9106C77.4918 45.7789 77.2896 45.7703 77.1596 45.8914L77.1102 45.9375C76.9802 46.0586 76.9717 46.2637 77.0913 46.3954Z" fill="#A9D8D5"/>
<path d="M10.7043 1.88574C10.5683 1.88574 10.4625 2.00425 10.4779 2.13946C10.4911 2.25456 10.5885 2.34148 10.7043 2.34148H69.7962C69.9323 2.34148 70.038 2.22297 70.0226 2.08776C70.0094 1.97266 69.912 1.88574 69.7962 1.88574H10.7043Z" fill="#FDE5E3"/>
<path d="M11.8919 7.41309C11.7119 7.41309 11.5977 7.60325 11.6911 7.75698C11.7338 7.82719 11.8104 7.86882 11.8926 7.86882H69.1558C69.2375 7.86882 69.3138 7.82744 69.3564 7.75767C69.4501 7.60395 69.3357 7.41309 69.1556 7.41309H11.8919Z" fill="#FDE5E3"/>
<path d="M11.0178 4.6499C10.8817 4.6499 10.776 4.76841 10.7914 4.90362C10.8045 5.01872 10.902 5.10564 11.0178 5.10564H70.0183C70.1405 5.10564 70.2431 5.01361 70.2501 4.89157C70.2577 4.75941 70.1505 4.6499 70.0181 4.6499H11.0178Z" fill="#FDE5E3"/>
<path d="M4.42017 55.0165V51.7337C4.42017 45.0049 9.87499 39.55 16.6038 39.55C23.3327 39.55 28.7875 45.0049 28.7875 51.7337V55.0165C28.7875 61.7454 23.3327 67.2002 16.6038 67.2002C9.87499 67.2002 4.42017 61.7454 4.42017 55.0165Z" fill="#F6ACC1"/>
<path d="M41.1757 39.55H81.6656C88.8453 39.55 94.6656 45.3703 94.6656 52.55V54.2002C94.6656 61.3799 88.8453 67.2002 81.6656 67.2002H41.1757C33.996 67.2002 28.1757 61.3799 28.1757 54.2002V52.55C28.1757 45.3703 33.996 39.55 41.1757 39.55Z" fill="#FCD4D0"/>
<path d="M28.9856 42.0872H87.061C87.1868 42.0872 87.2888 42.1892 87.2888 42.315C87.2888 42.4409 87.1868 42.5429 87.061 42.5429H28.9856C28.8598 42.5429 28.7577 42.4409 28.7577 42.315C28.7577 42.1892 28.8597 42.0872 28.9856 42.0872Z" fill="#FDE5E3"/>
<path d="M29.0118 44.8521H87.0612C87.1871 44.8521 87.2891 44.9541 87.2891 45.0799C87.2891 45.2058 87.1871 45.3078 87.0612 45.3078H29.0118C28.8859 45.3078 28.7839 45.2058 28.7839 45.0799C28.7839 44.9541 28.8859 44.8521 29.0118 44.8521Z" fill="#FDE5E3"/>
<path d="M29.0119 47.6152H87.0613C87.1872 47.6152 87.2892 47.7173 87.2892 47.8431C87.2892 47.969 87.1872 48.071 87.0613 48.071H29.0119C28.886 48.071 28.784 47.969 28.784 47.8431C28.784 47.7173 28.886 47.6152 29.0119 47.6152Z" fill="#FDE5E3"/>
<path d="M29.0118 50.3818H87.0612C87.1871 50.3818 87.2891 50.4839 87.2891 50.6097C87.2891 50.7356 87.1871 50.8376 87.0612 50.8376H29.0118C28.8859 50.8376 28.7839 50.7356 28.7839 50.6097C28.7839 50.4839 28.8859 50.3818 29.0118 50.3818Z" fill="#FDE5E3"/>
<path d="M29.0118 53.1462H87.0612C87.1871 53.1462 87.2891 53.2483 87.2891 53.3741C87.2891 53.5 87.1871 53.602 87.0612 53.602H29.0118C28.8859 53.602 28.7839 53.5 28.7839 53.3741C28.7839 53.2483 28.8859 53.1462 29.0118 53.1462Z" fill="#FDE5E3"/>
<path d="M29.0118 55.9128H87.0612C87.1871 55.9128 87.2891 56.0149 87.2891 56.1407C87.2891 56.2666 87.1871 56.3686 87.0612 56.3686H29.0118C28.8859 56.3686 28.7839 56.2666 28.7839 56.1407C28.7839 56.0149 28.8859 55.9128 29.0118 55.9128Z" fill="#FDE5E3"/>
<path d="M29.0118 61.4438H87.0612C87.1871 61.4438 87.2891 61.5459 87.2891 61.6717C87.2891 61.7976 87.1871 61.8996 87.0612 61.8996H29.0118C28.8859 61.8996 28.7839 61.7976 28.7839 61.6717C28.7839 61.5459 28.8859 61.4438 29.0118 61.4438Z" fill="#FDE5E3"/>
<path d="M29.0119 58.6775H87.0613C87.1872 58.6775 87.2892 58.7795 87.2892 58.9054C87.2892 59.0312 87.1872 59.1332 87.0613 59.1332H29.0119C28.886 59.1332 28.784 59.0312 28.784 58.9054C28.784 58.7795 28.886 58.6775 29.0119 58.6775Z" fill="#FDE5E3"/>
<path d="M29.0118 64.2061H87.0612C87.1871 64.2061 87.2891 64.3081 87.2891 64.4339C87.2891 64.5598 87.1871 64.6618 87.0612 64.6618H29.0118C28.8859 64.6618 28.7839 64.5598 28.7839 64.4339C28.7839 64.3081 28.8859 64.2061 29.0118 64.2061Z" fill="#FDE5E3"/>
<path d="M9.23438 42.0884H28.5358C28.6616 42.0884 28.7637 42.1904 28.7637 42.3162C28.7637 42.4421 28.6616 42.5441 28.5358 42.5441H9.23438C9.10853 42.5441 9.00651 42.4421 9.00651 42.3162C9.00651 42.1904 9.10853 42.0884 9.23438 42.0884Z" fill="#FABFD6"/>
<path d="M9.23433 44.8525H28.5597C28.6855 44.8525 28.7876 44.9546 28.7876 45.0804C28.7876 45.2063 28.6855 45.3083 28.5597 45.3083H9.23433C9.10849 45.3083 9.00647 45.2063 9.00647 45.0804C9.00647 44.9546 9.10849 44.8525 9.23433 44.8525Z" fill="#FABFD6"/>
<path d="M9.23433 47.6157H28.5597C28.6855 47.6157 28.7876 47.7177 28.7876 47.8436C28.7876 47.9694 28.6855 48.0715 28.5597 48.0715H9.23433C9.10849 48.0715 9.00647 47.9694 9.00647 47.8436C9.00647 47.7177 9.10849 47.6157 9.23433 47.6157Z" fill="#FABFD6"/>
<path d="M9.23433 50.3821H28.5597C28.6855 50.3821 28.7876 50.4841 28.7876 50.6099C28.7876 50.7358 28.6855 50.8378 28.5597 50.8378H9.23433C9.10849 50.8378 9.00647 50.7358 9.00647 50.6099C9.00647 50.4841 9.10849 50.3821 9.23433 50.3821Z" fill="#FABFD6"/>
<path d="M9.23449 53.1467H28.5598C28.6857 53.1467 28.7877 53.2487 28.7877 53.3746C28.7877 53.5004 28.6857 53.6025 28.5598 53.6025H9.23449C9.10864 53.6025 9.00662 53.5004 9.00662 53.3746C9.00662 53.2487 9.10864 53.1467 9.23449 53.1467Z" fill="#FABFD6"/>
<path d="M9.23449 55.9128H28.5598C28.6857 55.9128 28.7877 56.0149 28.7877 56.1407C28.7877 56.2666 28.6857 56.3686 28.5598 56.3686H9.23449C9.10864 56.3686 9.00662 56.2666 9.00662 56.1407C9.00662 56.0149 9.10864 55.9128 9.23449 55.9128Z" fill="#FABFD6"/>
<path d="M9.23449 61.4443H28.5598C28.6857 61.4443 28.7877 61.5464 28.7877 61.6722C28.7877 61.7981 28.6857 61.9001 28.5598 61.9001H9.23449C9.10864 61.9001 9.00662 61.7981 9.00662 61.6722C9.00662 61.5464 9.10864 61.4443 9.23449 61.4443Z" fill="#FABFD6"/>
<path d="M9.23449 58.6775H28.5598C28.6857 58.6775 28.7877 58.7795 28.7877 58.9054C28.7877 59.0312 28.6857 59.1332 28.5598 59.1332H9.23449C9.10864 59.1332 9.00662 59.0312 9.00662 58.9054C9.00662 58.7795 9.10864 58.6775 9.23449 58.6775Z" fill="#FABFD6"/>
<path d="M9.23449 64.2068H28.5598C28.6857 64.2068 28.7877 64.3088 28.7877 64.4347C28.7877 64.5605 28.6857 64.6625 28.5598 64.6625H9.23449C9.10864 64.6625 9.00662 64.5605 9.00662 64.4347C9.00662 64.3088 9.10864 64.2068 9.23449 64.2068Z" fill="#FABFD6"/>
</svg>
