<svg width="43" height="43" viewBox="0 0 43 43" fill="none" xmlns="http://www.w3.org/2000/svg">
<g clip-path="url(#clip0_348_561)">
<path d="M11.3533 40.3152C10.9692 40.3146 10.5894 40.2341 10.238 40.0787C9.74592 39.868 9.32709 39.5166 9.0342 39.0685C8.7413 38.6204 8.58744 38.0958 8.59194 37.5605V34.1837H5.84531C4.29582 34.1819 2.81028 33.5656 1.71449 32.4701C0.618705 31.3746 0.00213376 29.8892 0 28.3397L0 8.53416C0.00177752 6.9843 0.618149 5.49842 1.71393 4.40238C2.80972 3.30635 4.29546 2.68963 5.84531 2.6875H37.1547C38.7043 2.68963 40.1898 3.30616 41.2856 4.40191C42.3813 5.49766 42.9979 6.98319 43 8.53281V28.3397C42.9982 29.8894 42.3818 31.3752 41.286 32.471C40.1902 33.5668 38.7044 34.1832 37.1547 34.185H19.0503L13.205 39.5815C12.681 40.0639 12.0225 40.3152 11.3507 40.3152H11.3533ZM5.84531 5.375C5.00824 5.37642 4.20587 5.70957 3.61397 6.30147C3.02207 6.89337 2.68892 7.69574 2.6875 8.53281V28.3397C2.68857 29.1769 3.02161 29.9794 3.61358 30.5714C4.20555 31.1634 5.00814 31.4964 5.84531 31.4975H9.93569C10.2921 31.4975 10.6339 31.6391 10.8859 31.8911C11.1379 32.1431 11.2794 32.4849 11.2794 32.8413V37.5605L17.6152 31.8536C17.8632 31.6242 18.1885 31.4965 18.5263 31.4962H37.1547C37.9916 31.4951 38.794 31.1622 39.3859 30.5706C39.9779 29.9789 40.3111 29.1766 40.3125 28.3397V8.53416C40.3114 7.69686 39.9784 6.89413 39.3865 6.30195C38.7946 5.70976 37.992 5.37642 37.1547 5.375H5.84531Z" fill="#3D6464"/>
<path d="M31.8307 18.1191C32.8512 18.1191 33.6784 17.2919 33.6784 16.2715C33.6784 15.2511 32.8512 14.4238 31.8307 14.4238C30.8103 14.4238 29.9831 15.2511 29.9831 16.2715C29.9831 17.2919 30.8103 18.1191 31.8307 18.1191Z" fill="#3D6464"/>
<path d="M19.6523 18.1191C20.6728 18.1191 21.5 17.2919 21.5 16.2715C21.5 15.2511 20.6728 14.4238 19.6523 14.4238C18.6319 14.4238 17.8047 15.2511 17.8047 16.2715C17.8047 17.2919 18.6319 18.1191 19.6523 18.1191Z" fill="#3D6464"/>
<path d="M25.7409 24.1661C22.5683 24.1661 21.4167 21.4678 21.4167 19.6524C21.4154 19.296 21.5558 18.9537 21.8069 18.7009C22.0581 18.448 22.3994 18.3052 22.7557 18.304C23.1121 18.3027 23.4544 18.4431 23.7073 18.6942C23.9602 18.9453 24.1029 19.2866 24.1042 19.643C24.1136 20.1966 24.295 21.4786 25.7409 21.4786C27.2996 21.4786 27.3789 19.9574 27.3789 19.6524C27.3789 19.296 27.5205 18.9542 27.7725 18.7022C28.0245 18.4502 28.3663 18.3087 28.7227 18.3087C29.079 18.3087 29.4208 18.4502 29.6728 18.7022C29.9248 18.9542 30.0664 19.296 30.0664 19.6524C30.0664 21.4665 28.9148 24.1674 25.7409 24.1674V24.1661Z" fill="#3D6464"/>
</g>
<defs>
<clipPath id="clip0_348_561">
<rect width="43" height="43" fill="white"/>
</clipPath>
</defs>
</svg>
