<svg width="21" height="22" viewBox="0 0 21 22" fill="none" xmlns="http://www.w3.org/2000/svg">
<path d="M19.244 17.1893C18.0513 16.3197 17.4602 16.9178 16.9377 17.4436C16.5493 17.8354 16.1507 18.2341 15.4151 18.2651C14.9408 16.9074 15.1849 15.9691 15.5251 14.7009C15.8001 13.6801 16.1403 12.4084 16.1919 10.5559C16.2641 7.89561 16.0201 6.78202 15.8035 5.80247C15.6076 4.9226 15.4392 4.15958 15.5561 2.41015L15.8619 1.59214C16.0063 1.21407 15.9822 0.787879 15.8001 0.426993C15.697 0.220772 15.5079 0.076418 15.2811 0.0317369C15.0543 -0.0129442 14.824 0.045485 14.6521 0.196713L14.3703 0.437304C14.2981 0.495733 14.2225 0.495733 14.1813 0.488859C14.1434 0.481985 14.0713 0.457926 14.0231 0.378875C13.9097 0.182965 13.7138 0.0523589 13.4904 0.0179889C13.2636 -0.0163812 13.0402 0.052359 12.8752 0.207024L12.6277 0.437304C12.559 0.49917 12.4834 0.49917 12.4456 0.495733C12.4043 0.488859 12.3321 0.471674 12.2806 0.39606L12.2428 0.334194C12.119 0.148595 11.9197 0.0317369 11.6963 0.00767785C11.4695 -0.0163812 11.2529 0.066107 11.0948 0.224209L10.8852 0.433867C10.837 0.478548 10.7717 0.502607 10.7099 0.49917C10.6411 0.495733 10.5827 0.461363 10.5415 0.409808L10.459 0.299824C10.3249 0.121099 10.1221 0.0145519 9.90217 0.000803839C9.67877 -0.00950718 9.46568 0.079855 9.31445 0.241394L9.14603 0.426993C9.10135 0.478548 9.03605 0.502607 8.97075 0.502607C8.90544 0.49917 8.84358 0.471674 8.80233 0.420119L8.67516 0.26889C8.38989 -0.0713734 7.81591 -0.0713734 7.53064 0.26889L7.40347 0.420119C7.36223 0.471674 7.30036 0.49917 7.23506 0.502607C7.16632 0.49917 7.10445 0.478548 7.05977 0.426993L6.89136 0.241394C6.74013 0.079855 6.5236 -0.00607018 6.30363 0.000803839C6.08366 0.0145519 5.88088 0.121099 5.74683 0.299824L5.66434 0.409808C5.6231 0.461363 5.56467 0.495733 5.49593 0.49917C5.43406 0.502607 5.36532 0.478548 5.32064 0.433867L5.10755 0.220772C4.94945 0.066107 4.73291 -0.0129442 4.50951 0.00767785C4.2861 0.0317369 4.08676 0.148595 3.96303 0.334194L3.92522 0.39606C3.87366 0.471674 3.80149 0.488859 3.76024 0.495733C3.719 0.49917 3.64682 0.49917 3.57808 0.437304L3.33062 0.207024C3.16564 0.052359 2.9388 -0.0163812 2.71539 0.0179889C2.49199 0.0523589 2.29608 0.182965 2.18265 0.378875C2.13454 0.457926 2.06236 0.481985 2.02455 0.488859C1.98331 0.495733 1.90769 0.495733 1.83552 0.437304L1.55368 0.196713C1.37839 0.045485 1.15155 -0.0163812 0.92471 0.0317369C0.697867 0.076418 0.508832 0.220772 0.405722 0.426993C0.22356 0.787879 0.199501 1.21407 0.343856 1.59214L0.649749 2.41015C0.766608 4.15958 0.598194 4.91916 0.402285 5.79904C0.185753 6.78202 -0.0617114 7.89217 0.0139028 10.5559C0.0654579 12.4118 0.405722 13.6835 0.680682 14.7043C1.06219 16.1204 1.31309 17.0552 0.666934 18.6088C0.663497 18.6088 0.663497 18.6122 0.663497 18.6122C0.663497 18.6156 0.663497 18.6156 0.663497 18.6191L0.343856 19.4715C0.199501 19.8495 0.22356 20.2757 0.405722 20.6332C0.505395 20.8394 0.69443 20.9872 0.921273 21.0319C1.14812 21.08 1.38183 21.0181 1.55712 20.8669L1.83208 20.6297C1.88707 20.5816 1.95581 20.5644 2.02455 20.5747C2.06236 20.5816 2.13797 20.6057 2.18265 20.6847C2.3167 20.9116 2.56416 21.0525 2.82881 21.0525C3.01441 21.0525 3.19314 20.9837 3.33062 20.8566L3.57808 20.6263C3.64338 20.5644 3.72243 20.5644 3.76024 20.5679C3.80149 20.5713 3.87366 20.5919 3.92866 20.6744L3.96303 20.726C4.08676 20.9116 4.2861 21.0319 4.50607 21.0525C4.73291 21.0765 4.94945 20.9975 5.10755 20.8428L5.32064 20.6297C5.36876 20.5816 5.43406 20.5576 5.49937 20.5644C5.56467 20.5679 5.6231 20.5988 5.66434 20.6538L5.74683 20.7638C5.87744 20.9425 6.08022 21.049 6.30363 21.0594C6.5236 21.0697 6.73669 20.9837 6.88792 20.8222L7.05977 20.6366C7.10789 20.585 7.17319 20.561 7.23506 20.561C7.30036 20.5644 7.36223 20.5919 7.40691 20.6435L7.53064 20.7947C7.67156 20.9666 7.88122 21.0628 8.10118 21.0628C8.10462 21.0628 8.10462 21.0628 8.10462 21.0628C8.32459 21.0628 8.53425 20.9631 8.67173 20.7947L8.80233 20.6435C8.84358 20.5919 8.90544 20.5644 8.97075 20.561C9.03605 20.561 9.09792 20.585 9.14603 20.6366L9.31788 20.8222C9.46911 20.9872 9.67877 21.0731 9.90217 21.0594C10.1256 21.049 10.3284 20.9425 10.459 20.7638L10.4693 20.75C11.1532 21.5165 12.0606 21.9358 13.0642 21.9358C13.6141 21.9358 14.1263 21.6643 14.5937 21.135C15.1264 21.5474 15.6523 21.8189 16.161 21.9289C16.3672 21.977 16.5734 21.9977 16.7728 21.9977C18.1132 21.9977 19.2474 21.0284 19.7423 19.9355C20.2407 18.8287 20.0482 17.777 19.244 17.1893ZM15.1608 10.4562C15.1574 10.5971 15.0439 10.7071 14.903 10.7071H14.8996C14.7552 10.7036 14.6418 10.5868 14.6452 10.4459C14.6727 9.31853 14.6659 8.11558 14.4562 6.947C14.4322 6.80608 14.525 6.67204 14.6659 6.64798C14.8068 6.62392 14.9408 6.71672 14.9649 6.8542C15.1814 8.0709 15.1883 9.30478 15.1608 10.4562ZM14.415 5.49658C14.4012 5.49658 14.3875 5.50002 14.3737 5.50002C14.25 5.50002 14.14 5.41066 14.1194 5.28349C14.0781 5.04633 14.0438 4.80918 14.0231 4.57546C14.0094 4.43454 14.1125 4.30737 14.2534 4.29363C14.3943 4.28332 14.5215 4.38299 14.5353 4.52734C14.5559 4.74731 14.5868 4.97072 14.6281 5.19756C14.6521 5.33848 14.5559 5.47252 14.415 5.49658ZM0.825037 1.40998C0.735675 1.16595 0.749423 0.890989 0.866281 0.657272C0.897214 0.595406 0.955643 0.550725 1.02438 0.536977C1.09312 0.523229 1.1653 0.540414 1.22029 0.588532L1.50213 0.829123C1.6671 0.973477 1.88707 1.03191 2.10704 0.997536C2.32701 0.959729 2.51604 0.829123 2.62947 0.640087C2.66384 0.578221 2.72227 0.536977 2.79101 0.526666C2.85975 0.516355 2.92849 0.540414 2.98004 0.585095L3.23094 0.815375C3.38904 0.963166 3.60214 1.03191 3.82211 1.00785C4.03864 0.980351 4.23111 0.863493 4.35141 0.681331L4.39265 0.622902C4.44421 0.543851 4.51982 0.526666 4.56106 0.523229C4.60231 0.516355 4.67792 0.519792 4.74323 0.588532L4.95632 0.79819C5.10755 0.949418 5.31377 1.02847 5.53374 1.01472C5.75027 0.997536 5.94618 0.890989 6.07679 0.719139L6.15927 0.609154C6.21427 0.53354 6.28988 0.519792 6.33112 0.516355C6.37237 0.516355 6.44798 0.523229 6.50985 0.591969L6.6817 0.777568C6.82605 0.93567 7.03915 1.01816 7.24537 1.01816C7.4619 1.01128 7.66125 0.915048 7.79873 0.750072L7.9259 0.598843C7.98776 0.526666 8.06338 0.516355 8.10118 0.516355C8.14243 0.516355 8.21804 0.526666 8.27991 0.598843L8.40364 0.750072C8.54112 0.915048 8.7439 1.01128 8.96044 1.01816C9.17697 1.01816 9.37975 0.93567 9.52411 0.777568L9.69596 0.591969C9.75782 0.523229 9.83344 0.516355 9.87468 0.516355C9.91592 0.519792 9.99154 0.53354 10.0465 0.609154L10.129 0.719139C10.2596 0.890989 10.4555 0.997536 10.6721 1.01472C10.892 1.02847 11.0983 0.949418 11.2495 0.79819L11.4626 0.588532C11.5279 0.519792 11.6035 0.516355 11.6447 0.523229C11.686 0.526666 11.7616 0.543851 11.8132 0.622902L11.851 0.681331C11.9747 0.863493 12.1672 0.980351 12.3837 1.00785C12.6002 1.03534 12.8168 0.963166 12.9749 0.815375L13.2258 0.585095C13.2945 0.519792 13.3736 0.519792 13.4148 0.526666C13.4835 0.536977 13.542 0.578221 13.5763 0.640087C13.6898 0.829123 13.8788 0.959729 14.0953 0.997536C14.3153 1.03191 14.5353 0.973477 14.7037 0.829123L14.9855 0.588532C15.0405 0.540414 15.1092 0.523229 15.1814 0.536977C15.2502 0.550725 15.3086 0.595406 15.3395 0.657272C15.4048 0.791316 15.4392 0.93567 15.4392 1.08002C15.4392 1.19345 15.4186 1.30343 15.3808 1.40998L15.123 2.09738H1.08281L0.825037 1.40998ZM13.3804 10.5318C13.3804 13.4945 10.9711 15.9038 8.00838 15.9038C5.04568 15.9038 2.63634 13.4945 2.63634 10.5318C2.63634 7.5691 5.04568 5.15975 8.00838 5.15975C10.9711 5.15975 13.3804 7.5691 13.3804 10.5318ZM10.129 20.3445L10.0465 20.4544C9.99154 20.5301 9.91592 20.5438 9.87812 20.5472C9.83687 20.5472 9.76126 20.5404 9.69596 20.4716L9.52411 20.286C9.37975 20.1279 9.1804 20.0351 8.957 20.0454C8.7439 20.0523 8.54112 20.1485 8.40708 20.3135L8.27647 20.4648C8.23523 20.5163 8.16992 20.5472 8.10462 20.5472H8.10118C8.03588 20.5472 7.97058 20.5163 7.9259 20.4648L7.80216 20.3135C7.66468 20.1485 7.4619 20.0523 7.24881 20.0454H7.22818C7.02196 20.0454 6.82262 20.1314 6.6817 20.286L6.50985 20.4716C6.44455 20.5404 6.36893 20.5472 6.32769 20.5472C6.28988 20.5438 6.21427 20.5301 6.15927 20.4544L6.07679 20.3445C5.94618 20.1726 5.75027 20.0626 5.53374 20.0489C5.32064 20.0351 5.10755 20.1107 4.95632 20.2654L4.74323 20.4751C4.69511 20.5232 4.62637 20.5472 4.55763 20.5404C4.51982 20.5369 4.44421 20.5197 4.38921 20.4373L4.35484 20.3857C4.23455 20.2035 4.04208 20.0832 3.82554 20.0557C3.60558 20.0282 3.38905 20.1004 3.22751 20.2482L2.98004 20.4785C2.92849 20.5266 2.87006 20.5369 2.82881 20.5369C2.74632 20.5369 2.67071 20.4957 2.62947 20.4235C2.51604 20.2345 2.32701 20.1039 2.11048 20.0661C1.89395 20.0317 1.67054 20.0901 1.49869 20.2345L1.22029 20.4751C1.1653 20.5232 1.09312 20.5404 1.02438 20.5266C0.983139 20.5197 0.910962 20.4922 0.866281 20.4029C0.749423 20.1726 0.735675 19.8976 0.825037 19.6502L1.08281 18.9662H9.56191C9.56191 18.9697 9.56191 18.9731 9.56535 18.98C9.58253 19.0762 9.60659 19.1759 9.63753 19.2755C9.6444 19.2996 9.65127 19.3271 9.65815 19.3512C9.69252 19.4543 9.72689 19.5574 9.77157 19.6605C9.77501 19.6674 9.77501 19.6742 9.77844 19.6777C9.81969 19.7773 9.86781 19.8701 9.91592 19.9664C9.92967 19.9904 9.94342 20.0145 9.95717 20.0386C10.0122 20.1382 10.0706 20.2345 10.1325 20.3273C10.1359 20.3307 10.1359 20.3307 10.1359 20.3341C10.1325 20.3376 10.1325 20.341 10.129 20.3445ZM13.0642 21.4202C11.8028 21.4202 11.033 20.6641 10.6858 20.2139C10.3249 19.7499 10.0912 19.1896 10.0431 18.6809C10.0328 18.5985 10.0293 18.5194 10.0328 18.4404C10.05 17.8561 10.3662 17.3474 10.7855 17.2374C10.8405 17.2237 10.8989 17.2168 10.9573 17.2168C11.301 17.2168 11.6619 17.4849 11.9575 17.9729C11.9609 17.9798 11.9678 17.9867 11.9713 17.997C12.0194 18.0863 12.2118 18.4163 12.5143 18.8562C12.9646 19.5058 13.4251 20.0661 13.8857 20.5197C13.9853 20.6194 14.0816 20.7088 14.1744 20.7947C14.1812 20.7981 14.1881 20.805 14.1916 20.8119C13.8341 21.2175 13.456 21.4202 13.0642 21.4202ZM19.2715 19.7224C18.7903 20.7913 17.6045 21.7193 16.271 21.4271C15.7795 21.3206 15.257 21.0353 14.714 20.5816C14.5696 20.4613 14.4184 20.3238 14.25 20.1554C14.03 19.9389 13.8101 19.6949 13.5935 19.4302C13.5729 19.4062 13.5557 19.3821 13.5351 19.358C13.4457 19.2481 13.3564 19.1346 13.2636 19.0143C13.157 18.87 13.047 18.7188 12.9405 18.5641C12.8958 18.4953 12.8511 18.4335 12.8133 18.3716C13.2773 18.5125 14.0025 18.6741 15.0749 18.7772C15.1264 18.7806 15.1849 18.7841 15.2192 18.7841C15.2192 18.7841 15.2227 18.7841 15.2261 18.7841H15.233C16.2916 18.8253 16.8518 18.2616 17.3055 17.8045C17.821 17.2855 18.1063 16.9968 18.9415 17.6086C19.653 18.1276 19.5774 19.0418 19.2715 19.7224Z" fill="#3D6464"/>
<path d="M8.00795 5.67529C5.33052 5.67529 3.15146 7.85436 3.15146 10.5318C3.15146 13.2092 5.33052 15.3883 8.00795 15.3883C10.6854 15.3883 12.8644 13.2092 12.8644 10.5318C12.8644 7.85436 10.6854 5.67529 8.00795 5.67529ZM9.54429 12.618C9.38619 12.618 9.22809 12.6009 9.06311 12.5665C8.65067 12.4771 8.25198 12.2606 7.88422 11.9856C7.52333 12.374 7.12808 12.5734 6.70876 12.5734C5.76702 12.5734 5.1243 12.1162 4.7531 11.7347C4.22724 11.1917 3.91447 10.4596 3.9351 9.82376C3.95228 9.17073 4.32692 8.61393 4.8459 8.47645C5.08306 8.41459 5.67766 8.3596 6.2104 9.18104L6.4613 9.28759C6.76719 9.39757 7.33773 9.55224 8.28635 9.6416C8.96 9.70347 9.28652 9.37695 9.62678 9.02981C10.022 8.63112 10.517 8.13275 11.4725 8.83047C12.1117 9.2979 12.263 10.1297 11.8711 11.0027C11.4862 11.8619 10.596 12.618 9.54429 12.618Z" fill="#3D6464"/>
<path d="M7.4862 11.6522C7.23186 11.9169 6.97065 12.0578 6.70944 12.0578C5.94642 12.0578 5.42743 11.6866 5.12498 11.3738C4.69879 10.9373 4.43757 10.3324 4.45132 9.83748C4.46163 9.41817 4.68504 9.05385 4.98062 8.97479C5.25558 8.90262 5.5546 9.09853 5.80894 9.50753C5.82956 9.54534 6.00485 9.86154 6.30043 10.2774C6.59258 10.6933 7.00158 11.2123 7.4862 11.6522ZM11.5659 10.0781C11.5659 10.3221 11.5006 10.573 11.401 10.793C11.0435 11.5869 10.1636 12.2778 9.17377 12.0612C8.7682 11.9753 8.37639 11.7347 8.01206 11.4323C8.01206 11.4323 8.01206 11.4288 8.00863 11.4288C8.00863 11.4288 8.00863 11.4288 8.00519 11.4254C7.45183 10.9614 6.97409 10.3462 6.66132 9.88904C7.02564 9.98871 7.53776 10.0884 8.23891 10.1537C9.15659 10.2431 9.6412 9.75156 9.99522 9.39411C10.3905 8.99542 10.5726 8.81325 11.1672 9.24632C11.4559 9.45941 11.5659 9.76187 11.5659 10.0781ZM17.7525 18.8871L17.6219 19.0521C17.5326 19.1655 17.5532 19.3271 17.6666 19.413C17.7147 19.4508 17.7697 19.468 17.8247 19.468C17.9003 19.468 17.976 19.4336 18.0275 19.3683L18.1581 19.2033C18.2475 19.0899 18.2269 18.9284 18.1134 18.8424C18.0034 18.7565 17.8419 18.7737 17.7525 18.8871ZM18.574 19.5333L18.4434 19.6983C18.354 19.8117 18.3746 19.9732 18.4881 20.0591C18.5362 20.097 18.5912 20.1141 18.6462 20.1141C18.7218 20.1141 18.7974 20.0798 18.8489 20.0145L18.9796 19.8495C19.0689 19.7361 19.0483 19.5745 18.9349 19.4886C18.8215 19.3992 18.6599 19.4199 18.574 19.5333ZM18.6049 18.5469L18.4743 18.7118C18.385 18.8253 18.4056 18.9868 18.519 19.0727C18.5671 19.1105 18.6221 19.1277 18.6771 19.1277C18.7527 19.1277 18.8283 19.0933 18.8799 19.028L19.0105 18.8631C19.0999 18.7496 19.0792 18.5881 18.9658 18.5022C18.8558 18.4163 18.6908 18.4369 18.6049 18.5469Z" fill="#3D6464"/>
</svg>
