<svg width="50" height="50" viewBox="0 0 50 50" fill="none" xmlns="http://www.w3.org/2000/svg">
<path d="M47.991 4.28003H2.009C1.407 4.28003 0.937003 4.80903 1.006 5.40603C1.564 10.174 5.617 13.875 10.535 13.875H39.463C44.381 13.875 48.435 10.175 48.992 5.40603C49.0083 5.26474 48.9947 5.1216 48.9518 4.98596C48.909 4.85033 48.838 4.72528 48.7435 4.61898C48.649 4.51268 48.5332 4.42754 48.4035 4.36913C48.2738 4.31072 48.1332 4.28036 47.991 4.28003Z" fill="#FFCC66"/>
<path d="M47.991 11.8789H2.009C1.407 11.8789 0.937003 12.4079 1.006 13.0049C1.564 17.7729 5.617 21.4739 10.535 21.4739H39.463C44.381 21.4739 48.435 17.7739 48.992 13.0049C49.0083 12.8636 48.9947 12.7205 48.9518 12.5848C48.909 12.4492 48.838 12.3242 48.7435 12.2179C48.649 12.1116 48.5332 12.0264 48.4035 11.968C48.2738 11.9096 48.1332 11.8792 47.991 11.8789Z" fill="#88C057"/>
<path d="M47.991 19.479H2.009C1.407 19.479 0.937003 20.008 1.006 20.605C1.564 25.373 5.617 29.074 10.535 29.074H39.463C44.381 29.074 48.435 25.374 48.992 20.605C49.0083 20.4637 48.9947 20.3206 48.9518 20.1849C48.909 20.0493 48.838 19.9242 48.7435 19.818C48.649 19.7117 48.5332 19.6265 48.4035 19.5681C48.2738 19.5097 48.1332 19.4793 47.991 19.479Z" fill="#ED7161"/>
<path d="M47.991 27.0779H2.009C1.407 27.0779 0.937003 27.6069 1.006 28.2039C1.564 32.9719 5.617 36.6729 10.535 36.6729H39.463C44.381 36.6729 48.435 32.9729 48.992 28.2039C49.0083 28.0626 48.9947 27.9194 48.9518 27.7838C48.909 27.6482 48.838 27.5231 48.7435 27.4168C48.649 27.3105 48.5332 27.2254 48.4035 27.167C48.2738 27.1086 48.1332 27.0782 47.991 27.0779Z" fill="#3AB7FC"/>
<path d="M38.449 45.7209H11.551C11.2858 45.7209 11.0314 45.6155 10.8439 45.428C10.6564 45.2405 10.551 44.9861 10.551 44.7209V44.2439C10.551 43.9787 10.6564 43.7243 10.8439 43.5368C11.0314 43.3493 11.2858 43.2439 11.551 43.2439H38.449C38.7142 43.2439 38.9686 43.3493 39.1561 43.5368C39.3436 43.7243 39.449 43.9787 39.449 44.2439V44.7209C39.449 44.9861 39.3436 45.2405 39.1561 45.428C38.9686 45.6155 38.7142 45.7209 38.449 45.7209Z" fill="#CCCCCC"/>
<path d="M47.991 34.677H2.009C1.407 34.677 0.937003 35.206 1.006 35.803C1.564 40.571 5.617 44.272 10.535 44.272H39.463C44.381 44.272 48.435 40.572 48.992 35.803C49.0083 35.6617 48.9947 35.5186 48.9518 35.3829C48.909 35.2473 48.838 35.1223 48.7435 35.016C48.649 34.9097 48.5332 34.8245 48.4035 34.7661C48.2738 34.7077 48.1332 34.6773 47.991 34.677Z" fill="#E6E6E6"/>
</svg>
