<svg width="66" height="66" viewBox="0 0 66 66" fill="none" xmlns="http://www.w3.org/2000/svg">
<circle cx="33" cy="33" r="33" fill="#F5F7FA"/>
<path d="M33 16C23.65 16 16 23.65 16 33C16 42.35 23.65 50 33 50C42.35 50 50 42.35 50 33C50 23.65 42.35 16 33 16ZM33 24.5C35.89 24.5 38.1 26.71 38.1 29.6C38.1 32.49 35.89 34.7 33 34.7C30.11 34.7 27.9 32.49 27.9 29.6C27.9 26.71 30.11 24.5 33 24.5ZM33 46.6C29.26 46.6 25.69 45.07 23.14 42.35C26.88 36.91 34.19 35.55 39.63 39.29C40.82 40.14 41.84 41.16 42.69 42.35C40.31 45.07 36.74 46.6 33 46.6Z" fill="#3D6464"/>
</svg>
