<svg width="38" height="38" viewBox="0 0 38 38" fill="none" xmlns="http://www.w3.org/2000/svg">
<ellipse cx="19" cy="19.0208" rx="19" ry="18.9536" fill="#3D6363"/>
<path d="M23.5897 28.2351C23.5897 30.7772 23.8305 30.92 21.2883 30.92H16.6849C14.1428 30.92 14 30.7772 14 28.2351V10.6849C14 8.14276 14.1428 8 16.6849 8H20.9048C23.4469 8 23.5897 8.14276 23.5897 10.6849V28.2351Z" stroke="white" stroke-width="1.2" stroke-miterlimit="10"/>
<path d="M15.7283 12.6439C15.5649 12.6431 15.4315 12.8131 15.4307 13.0236C15.43 13.234 15.5611 13.4048 15.7244 13.4056L16.0325 13.4071C16.1959 13.4079 16.3293 13.2379 16.3301 13.0274C16.3309 12.817 16.1998 12.6462 16.0364 12.6454L15.7283 12.6439ZM15.7283 14.5889C15.5649 14.5881 15.4315 14.7581 15.4307 14.9686C15.43 15.179 15.5611 15.3498 15.7244 15.3506L16.0325 15.3521C16.1959 15.3529 16.3293 15.1829 16.3301 14.9725C16.3309 14.762 16.1998 14.5912 16.0364 14.5905L15.7283 14.5889ZM15.7283 16.5339C15.5649 16.5331 15.4315 16.7031 15.4307 16.9136C15.43 17.124 15.5611 17.2948 15.7244 17.2956L16.0325 17.2971C16.1959 17.2979 16.3293 17.1279 16.3301 16.9175C16.3309 16.707 16.1998 16.5362 16.0364 16.5355L15.7283 16.5339ZM18.6458 12.6439C18.4825 12.6431 18.349 12.8131 18.3483 13.0236C18.3475 13.234 18.4786 13.4048 18.642 13.4056L18.95 13.4071C19.113 13.4079 19.2469 13.2379 19.2476 13.0274C19.2484 12.817 19.1169 12.6462 18.9539 12.6454L18.6458 12.6439ZM18.6458 14.5889C18.4825 14.5881 18.349 14.7581 18.3483 14.9686C18.3475 15.179 18.4786 15.3498 18.642 15.3506L18.95 15.3521C19.113 15.3529 19.2469 15.1829 19.2476 14.9725C19.2484 14.762 19.1169 14.5912 18.9539 14.5905L18.6458 14.5889ZM18.6458 16.5339C18.4825 16.5331 18.349 16.7031 18.3483 16.9136C18.3475 17.124 18.4786 17.2948 18.642 17.2956L18.95 17.2971C19.113 17.2979 19.2469 17.1279 19.2476 16.9175C19.2484 16.707 19.1169 16.5362 18.9539 16.5355L18.6458 16.5339ZM21.5634 12.6439C21.4 12.6431 21.2662 12.8131 21.2654 13.0236C21.2646 13.234 21.3961 13.4048 21.5595 13.4056L21.8672 13.4071C22.0306 13.4079 22.1644 13.2379 22.1651 13.0274C22.1659 12.817 22.0344 12.6462 21.8711 12.6454L21.5634 12.6439ZM21.5634 14.5889C21.4 14.5881 21.2662 14.7581 21.2654 14.9686C21.2646 15.179 21.3961 15.3498 21.5595 15.3506L21.8672 15.3521C22.0306 15.3529 22.1644 15.1829 22.1651 14.9725C22.1659 14.762 22.0344 14.5912 21.8711 14.5905L21.5634 14.5889ZM21.5634 16.5339C21.4 16.5331 21.2662 16.7031 21.2654 16.9136C21.2646 17.124 21.3961 17.2948 21.5595 17.2956L21.8672 17.2971C22.0306 17.2979 22.1644 17.1279 22.1651 16.9175C22.1659 16.707 22.0344 16.5362 21.8711 16.5355L21.5634 16.5339ZM15.7283 27.426C15.5649 27.4252 15.4315 27.5952 15.4307 27.8056C15.43 28.0161 15.5611 28.1869 15.7244 28.1876L16.0325 28.1892C16.1959 28.19 16.3293 28.02 16.3301 27.8095C16.3309 27.5991 16.1998 27.4283 16.0364 27.4275L15.7283 27.426ZM18.6458 27.426C18.4825 27.4252 18.349 27.5952 18.3483 27.8056C18.3475 28.0161 18.4786 28.1869 18.642 28.1876L18.95 28.1892C19.113 28.19 19.2469 28.02 19.2476 27.8095C19.2484 27.5991 19.1169 27.4283 18.9539 27.4275L18.6458 27.426ZM21.5634 27.426C21.4 27.4252 21.2662 27.5952 21.2654 27.8056C21.2646 28.0161 21.3961 28.1869 21.5595 28.1876L21.8672 28.1892C22.0306 28.19 22.1644 28.02 22.1651 27.8095C22.1659 27.5991 22.0344 27.4283 21.8711 27.4275L21.5634 27.426ZM16.3363 10.9043C16.3363 11.0676 16.166 11.1999 15.9555 11.1999C15.7451 11.1999 15.5747 11.0676 15.5747 10.9043V10.5962C15.5747 10.4328 15.7451 10.3005 15.9555 10.3005C16.166 10.3005 16.3363 10.4328 16.3363 10.5962V10.9043Z" fill="white"/>
<path d="M18.7979 24.9546C20.275 24.9546 21.4723 23.7572 21.4723 22.2802C21.4723 20.8032 20.275 19.6058 18.7979 19.6058C17.3209 19.6058 16.1236 20.8032 16.1236 22.2802C16.1236 23.7572 17.3209 24.9546 18.7979 24.9546Z" stroke="white" stroke-width="1.2" stroke-miterlimit="10"/>
</svg>
