<svg width="18" height="16" viewBox="0 0 18 16" fill="none" xmlns="http://www.w3.org/2000/svg">
<path fill-rule="evenodd" clip-rule="evenodd" d="M0.859615 5.89474H17.1407C17.2711 5.89462 17.3998 5.92368 17.5171 5.97971C17.6343 6.03574 17.737 6.11728 17.8174 6.21813C17.8978 6.31898 17.9538 6.43649 17.981 6.56175C18.0083 6.68701 18.0061 6.81672 17.9748 6.94105L16.4769 12.8105C16.243 13.7227 15.7057 14.532 14.9501 15.1098C14.1946 15.6877 13.2642 16.001 12.3067 16H5.69364C4.73615 16.001 3.80576 15.6877 3.05024 15.1098C2.29471 14.532 1.75735 13.7227 1.52349 12.8105L0.0255863 6.94105C-0.0060523 6.8167 -0.00838089 6.6869 0.018778 6.56154C0.045937 6.43617 0.101867 6.31855 0.182305 6.21764C0.262744 6.11673 0.365569 6.03518 0.482944 5.97923C0.60032 5.92327 0.729149 5.89437 0.859615 5.89474ZM4.71432 0H13.286C13.5134 0 13.7314 0.0887215 13.8922 0.246647C14.0529 0.404572 14.1432 0.618765 14.1432 0.842105C14.1432 1.06545 14.0529 1.27964 13.8922 1.43756C13.7314 1.59549 13.5134 1.68421 13.286 1.68421H4.71432C4.48698 1.68421 4.26896 1.59549 4.10821 1.43756C3.94746 1.27964 3.85715 1.06545 3.85715 0.842105C3.85715 0.618765 3.94746 0.404572 4.10821 0.246647C4.26896 0.0887215 4.48698 0 4.71432 0ZM2.99997 2.94737H15.0004C15.2277 2.94737 15.4457 3.03609 15.6065 3.19402C15.7673 3.35194 15.8576 3.56613 15.8576 3.78947C15.8576 4.01281 15.7673 4.22701 15.6065 4.38493C15.4457 4.54286 15.2277 4.63158 15.0004 4.63158H2.99997C2.77264 4.63158 2.55461 4.54286 2.39386 4.38493C2.23311 4.22701 2.1428 4.01281 2.1428 3.78947C2.1428 3.56613 2.23311 3.35194 2.39386 3.19402C2.55461 3.03609 2.77264 2.94737 2.99997 2.94737Z" fill="#3D6464"/>
</svg>
