<svg width="128" height="60" viewBox="0 0 128 60" fill="none" xmlns="http://www.w3.org/2000/svg">
<mask id="mask0_362_2168" style="mask-type:alpha" maskUnits="userSpaceOnUse" x="0" y="0" width="128" height="60">
<rect width="128" height="60" fill="#D9D9D9"/>
</mask>
<g mask="url(#mask0_362_2168)">
<path d="M118.911 26.8179L103.07 166.505H24.384L8.54253 26.8179H118.911Z" fill="#2C2C2C"/>
<path d="M118.911 26.8174L103.069 166.504H85.9272L101.162 32.1601H9.14815L8.54189 26.8174H118.911Z" fill="#E0F1F0"/>
<path d="M127.454 26.8174H0L1.01041 21.1061C1.44269 18.6662 3.53733 16.8889 5.98341 16.8889H8.1694L9.77376 10.6896C10.8984 6.33527 14.7819 3.29883 19.2242 3.29883H108.23C112.672 3.29883 116.554 6.33527 117.681 10.6896L119.283 16.8889H121.471C123.917 16.8889 126.012 18.6662 126.442 21.1061L127.454 26.8174Z" fill="#A9D8D5"/>
</g>
</svg>
