<svg width="23" height="23" viewBox="0 0 23 23" fill="none" xmlns="http://www.w3.org/2000/svg">
<rect x="22.5" y="0.5" width="22" height="22" rx="11" transform="rotate(90 22.5 0.5)" fill="white"/>
<rect x="22.5" y="0.5" width="22" height="22" rx="11" transform="rotate(90 22.5 0.5)" stroke="black"/>
<path d="M10.2518 7.66995L10.7472 7.16148C10.957 6.94617 11.2963 6.94617 11.5038 7.16148L15.8427 11.6118C16.0524 11.8271 16.0524 12.1752 15.8427 12.3882L11.5061 16.8385C11.2963 17.0538 10.957 17.0538 10.7495 16.8385L10.254 16.3301C10.042 16.1125 10.0464 15.7574 10.2629 15.5444L12.9501 12.9173H6.53565C6.23881 12.9173 6 12.6722 6 12.3676V11.6347C6 11.3301 6.23881 11.085 6.53565 11.085H12.9501L10.2607 8.45557C10.042 8.24256 10.0375 7.88754 10.2518 7.66995Z" fill="black"/>
</svg>
