<svg width="12" height="12" viewBox="0 0 12 12" fill="none" xmlns="http://www.w3.org/2000/svg">
<path fill-rule="evenodd" clip-rule="evenodd" d="M2 1C1.44778 1 1 1.44778 1 2V3.5C1 4.05222 1.44778 4.5 2 4.5H3.5C4.05222 4.5 4.5 4.05222 4.5 3.5V2C4.5 1.44778 4.05222 1 3.5 1H2ZM2 0C0.8955 0 0 0.8955 0 2V3.5C0 4.6045 0.8955 5.5 2 5.5H3.5C4.6045 5.5 5.5 4.6045 5.5 3.5V2C5.5 0.8955 4.6045 0 3.5 0H2ZM2 7.5C1.44778 7.5 1 7.94778 1 8.5V10C1 10.5522 1.44778 11 2 11H3.5C4.05222 11 4.5 10.5522 4.5 10V8.5C4.5 7.94778 4.05222 7.5 3.5 7.5H2ZM2 6.5C0.8955 6.5 0 7.3955 0 8.5V10C0 11.1045 0.8955 12 2 12H3.5C4.6045 12 5.5 11.1045 5.5 10V8.5C5.5 7.3955 4.6045 6.5 3.5 6.5H2ZM8.5 1C7.94778 1 7.5 1.44778 7.5 2V3.5C7.5 4.05222 7.94778 4.5 8.5 4.5H10C10.5522 4.5 11 4.05222 11 3.5V2C11 1.44778 10.5522 1 10 1H8.5ZM8.5 0C7.3955 0 6.5 0.8955 6.5 2V3.5C6.5 4.6045 7.3955 5.5 8.5 5.5H10C11.1045 5.5 12 4.6045 12 3.5V2C12 0.8955 11.1045 0 10 0H8.5ZM8.5 7.5C7.94778 7.5 7.5 7.94778 7.5 8.5V10C7.5 10.5522 7.94778 11 8.5 11H10C10.5522 11 11 10.5522 11 10V8.5C11 7.94778 10.5522 7.5 10 7.5H8.5ZM8.5 6.5C7.3955 6.5 6.5 7.3955 6.5 8.5V10C6.5 11.1045 7.3955 12 8.5 12H10C11.1045 12 12 11.1045 12 10V8.5C12 7.3955 11.1045 6.5 10 6.5H8.5Z" fill="#3D6464"/>
</svg>
