<svg width="91" height="91" viewBox="0 0 91 91" fill="none" xmlns="http://www.w3.org/2000/svg">
<path d="M75.9051 40.0316C92.8076 49.7903 92.8972 65.6118 76.1045 75.3706C59.3118 85.1295 31.9969 85.1296 15.0944 75.3709C-1.80815 65.6122 -1.89667 49.7907 14.896 40.0319C31.6887 30.273 59.0025 30.2729 75.9051 40.0316Z" fill="#F8F9FE"/>
<path d="M55.1265 48.6858L53.7588 49.4813L52.3816 48.6858L53.7493 47.8911L55.1265 48.6858Z" fill="#DBA660"/>
<path d="M79.321 45.583L79.3109 50.6905L80.6873 51.4852L80.6995 45.583H79.321Z" fill="#AA6256"/>
<path d="M49.6273 9.10498L49.5972 36.8166L48.2294 37.6115C48.0914 26.916 47.5461 12.2087 48.2594 9.89989C48.4964 9.49558 48.9924 9.25605 49.6273 9.10498Z" fill="#BF7D5A"/>
<path d="M48.2594 9.90009L48.2294 37.6117L46.8527 36.8168L46.8827 9.10522C47.5231 9.23149 48.0508 9.44391 48.2594 9.90009Z" fill="#AA6256"/>
<path d="M49.6274 9.10479L48.2597 9.9002L46.8825 9.10479L48.2502 8.31006L49.6274 9.10479Z" fill="#DBA660"/>
<path d="M48.2947 24.8418L24.3988 38.6401L23.0102 37.8312L22.9697 26.9045L46.8792 13.1062L48.2543 13.9151L48.2947 24.8418Z" fill="#AA6256"/>
<path d="M24.3968 38.6388L23.0075 37.8319L22.9691 26.9065L24.3583 27.714L24.3968 38.6388Z" fill="#AA6256"/>
<path d="M24.3583 27.7141L22.9691 26.9065L46.8771 13.1035L48.2543 13.9171L24.3583 27.7141Z" fill="#DBA660"/>
<path d="M48.2543 13.9172L48.292 24.8426L24.3968 38.6389L24.3583 27.7142L48.2543 13.9172Z" fill="#BF7D5A"/>
<path d="M25.4335 23.22L25.4032 47.153L24.0355 47.9477L24.0658 24.0147L25.4335 23.22Z" fill="#BF7D5A"/>
<path d="M25.4335 23.22L24.0658 24.0148L22.6887 23.22L24.057 22.4253L25.4335 23.22Z" fill="#DBA660"/>
<path d="M24.0462 37.9482L24.0611 43.2775L56.5528 62.159L56.5373 56.8297L24.0462 37.9482Z" fill="#DEDFFB"/>
<path d="M35.9269 44.8525L35.942 50.1818L56.5525 62.1593C56.8081 60.0255 57.0747 57.8766 56.5374 56.8301C55.7599 53.1139 44.4887 48.9218 35.9269 44.8525Z" fill="#497BFE"/>
<path d="M82.0794 46.1089V44.9225L56.5455 59.6645L24.0551 40.7432C24.0484 40.7432 24.0484 40.7432 24.0484 40.75L24.0686 24.0127L22.6867 23.2173L22.6598 47.1537L24.0349 47.9491L24.0416 43.2507C24.0484 43.2575 24.0551 43.271 24.0618 43.2777L55.1704 61.3564L55.1636 64.7065L56.5387 65.5019L57.9071 64.7065L57.9139 61.3699L80.6908 48.2187L80.6841 51.488L82.0861 50.6926V46.1089H82.0794ZM56.5522 61.4036L56.5455 60.3453H56.5522V61.4036Z" fill="#AA6256"/>
<path d="M56.5521 60.3452V61.4035L56.5454 60.3452H56.5521Z" fill="#AA6256"/>
<path d="M56.5374 56.8302L56.5525 62.1594L82.0852 47.4181L82.0701 42.0889C71.5657 47.4975 58.7786 53.4729 56.5374 56.8302Z" fill="#5094FF"/>
<path d="M56.5521 60.3452V61.4035L56.5454 60.3452H56.5521Z" fill="#AA6256"/>
<path d="M56.5532 62.158L56.5505 61.4035L56.5527 60.3474H56.5467L56.5443 59.6673L24.0543 40.7406C24.0513 40.7436 24.0483 40.7466 24.0453 40.7495L24.0662 24.0157L22.6881 23.2192L22.6583 47.1538L24.0364 47.9472L24.0424 43.2492C24.0483 43.2582 24.0543 43.2701 24.0602 43.279L55.1722 61.3556L55.1652 64.709L56.542 65.5038L56.549 62.1555L56.5532 62.158Z" fill="#AA6256"/>
<path d="M82.0813 46.1108L82.0779 44.9258L56.5454 59.6671L56.5508 61.4352L56.542 65.5039L57.9097 64.7092L57.9164 61.3718L80.6941 48.2213L80.6873 51.4852L82.0854 50.6905V46.1108H82.0813Z" fill="#DBA660"/>
<path d="M24.0462 37.9483L56.5373 56.8298L82.0692 42.0898L49.6186 23.1841L24.0462 37.9483Z" fill="#F3F1FC"/>
<path d="M82.0699 42.0892L56.5386 56.8305L35.9261 44.8535L61.4978 30.0886L63.2578 31.1119L64.8008 32.0064H64.8035L68.1233 33.9369L69.8772 34.9595H69.8799L73.3817 36.9945L75.1835 38.0407L78.7366 40.1296L80.4858 41.1576L82.0699 42.0892Z" fill="#57B3FE"/>
<path d="M41.091 44.5353C41.5979 44.8279 41.6006 45.2992 41.0969 45.5919C40.5957 45.8831 39.7797 45.8846 39.2727 45.5919C38.7683 45.3007 38.7656 44.8265 39.2668 44.5353C39.7704 44.2426 40.5865 44.244 41.091 44.5353ZM44.4409 42.5763C44.9479 42.869 44.9505 43.3402 44.4469 43.6329C43.9457 43.9241 43.1296 43.9256 42.6227 43.6329C42.1183 43.3417 42.1156 42.8675 42.6167 42.5763C43.1204 42.2836 43.9365 42.285 44.4409 42.5763ZM44.9046 45.0453C45.4116 45.338 45.4142 45.8092 44.9105 46.1019C44.4094 46.3932 43.5933 46.3946 43.0864 46.1019C42.5819 45.8107 42.5793 45.3365 43.0804 45.0453C43.5841 44.7526 44.4002 44.7541 44.9046 45.0453ZM45.9015 47.665C46.4084 47.9577 46.4111 48.4289 45.9074 48.7216C45.4063 49.0129 44.5902 49.0143 44.0832 48.7216C43.5788 48.4304 43.5761 47.9562 44.0773 47.665C44.5809 47.3723 45.397 47.3738 45.9015 47.665ZM49.5215 45.6249C50.0285 45.9176 50.0311 46.3888 49.5275 46.6815C49.0263 46.9727 48.2102 46.9742 47.7033 46.6815C47.1989 46.3903 47.1962 45.9161 47.6973 45.6249C48.201 45.3322 49.0171 45.3336 49.5215 45.6249ZM52.8367 43.6543C53.3437 43.947 53.3463 44.4182 52.8427 44.7109C52.3415 45.0022 51.5255 45.0036 51.0185 44.7109C50.5141 44.4197 50.5114 43.9455 51.0125 43.6543C51.5162 43.3616 52.3323 43.3631 52.8367 43.6543ZM56.1519 41.6837C56.6589 41.9764 56.6615 42.4476 56.1579 42.7403C55.6567 43.0316 54.8407 43.0331 54.3337 42.7404C53.8293 42.4491 53.8266 41.975 54.3277 41.6837C54.8314 41.391 55.6475 41.3925 56.1519 41.6837ZM59.4671 39.7131C59.9741 40.0058 59.9768 40.4771 59.4731 40.7698C58.9719 41.061 58.1559 41.0625 57.6489 40.7698C57.1445 40.4786 57.1418 40.0044 57.643 39.7131C58.1466 39.4204 58.9627 39.4219 59.4671 39.7131ZM49.7302 48.1518C50.2371 48.4445 50.2398 48.9158 49.7361 49.2085C49.235 49.4997 48.4189 49.5012 47.9119 49.2085C47.4075 48.9173 47.4048 48.4431 47.906 48.1518C48.4097 47.8591 49.2257 47.8606 49.7302 48.1518ZM53.1845 46.1704C53.6914 46.4631 53.6941 46.9343 53.1904 47.227C52.6893 47.5183 51.8732 47.5197 51.3662 47.2271C50.8618 46.9358 50.8591 46.4616 51.3603 46.1704C51.864 45.8777 52.6801 45.8792 53.1845 46.1704ZM56.6388 44.189C57.1458 44.4817 57.1484 44.9529 56.6447 45.2456C56.1436 45.5368 55.3275 45.5383 54.8205 45.2456C54.3161 44.9544 54.3134 44.4802 54.8146 44.189C55.3183 43.8963 56.1344 43.8977 56.6388 44.189ZM60.0931 42.2075C60.6001 42.5002 60.6027 42.9715 60.099 43.2642C59.5979 43.5554 58.7818 43.5569 58.2749 43.2642C57.7704 42.9729 57.7678 42.4988 58.2689 42.2075C58.7726 41.9148 59.5887 41.9163 60.0931 42.2075ZM63.4431 40.4032C63.95 40.6959 63.9527 41.1671 63.449 41.4598C62.9479 41.7511 62.1318 41.7525 61.6248 41.4599C61.1204 41.1686 61.1177 40.6944 61.6189 40.4032C62.1225 40.1105 62.9386 40.112 63.4431 40.4032ZM64.637 42.849C65.144 43.1417 65.1466 43.613 64.643 43.9057C64.1418 44.1969 63.3257 44.1984 62.8188 43.9057C62.3143 43.6144 62.3117 43.1403 62.8128 42.849C63.3165 42.5563 64.1326 42.5578 64.637 42.849ZM61.1016 44.7964C61.6085 45.0891 61.6112 45.5604 61.1075 45.8531C60.6064 46.1443 59.7903 46.1458 59.2833 45.8531C58.7789 45.5618 58.7762 45.0877 59.2774 44.7964C59.781 44.5037 60.5971 44.5052 61.1016 44.7964ZM57.8327 46.7322C58.3397 47.0249 58.3423 47.4962 57.8387 47.7889C57.3375 48.0801 56.5214 48.0816 56.0145 47.7889C55.5101 47.4976 55.5074 47.0235 56.0085 46.7322C56.5122 46.4395 57.3283 46.441 57.8327 46.7322ZM54.2973 48.7492C54.8042 49.0419 54.8069 49.5131 54.3032 49.8058C53.8021 50.097 52.986 50.0985 52.479 49.8058C51.9746 49.5146 51.9719 49.0404 52.4731 48.7492C52.9768 48.4565 53.7928 48.4579 54.2973 48.7492ZM51.0203 50.6788C51.5273 50.9715 51.5299 51.4427 51.0263 51.7354C50.5251 52.0267 49.709 52.0282 49.2021 51.7355C48.6976 51.4442 48.695 50.9701 49.1961 50.6788C49.6998 50.3861 50.5159 50.3876 51.0203 50.6788ZM54.8456 51.3279C55.3525 51.6206 55.3552 52.0919 54.8515 52.3846C54.3504 52.6758 53.5343 52.6773 53.0273 52.3846C52.5229 52.0934 52.5202 51.6192 53.0214 51.328C53.525 51.0352 54.3411 51.0367 54.8456 51.3279ZM58.1221 49.3806C58.6291 49.6732 58.6317 50.1445 58.1281 50.4372C57.6269 50.7284 56.8108 50.7299 56.3039 50.4372C55.7995 50.146 55.7968 49.6718 56.2979 49.3806C56.8016 49.0879 57.6177 49.0893 58.1221 49.3806ZM61.3832 47.2546C61.8902 47.5473 61.8928 48.0185 61.3892 48.3112C60.888 48.6025 60.072 48.6039 59.565 48.3112C59.0606 48.02 59.0579 47.5458 59.559 47.2546C60.0627 46.9619 60.8788 46.9634 61.3832 47.2546ZM64.9225 45.2949C65.4295 45.5876 65.4321 46.0588 64.9285 46.3515C64.4273 46.6427 63.6113 46.6442 63.1043 46.3515C62.5999 46.0603 62.5972 45.5861 63.0983 45.2949C63.602 45.0022 64.4181 45.0036 64.9225 45.2949ZM68.4619 43.3352C68.9688 43.6278 68.9715 44.0991 68.4678 44.3918C67.9666 44.683 67.1506 44.6845 66.6436 44.3918C66.1392 44.1006 66.1365 43.6264 66.6377 43.3352C67.1413 43.0425 67.9574 43.0439 68.4619 43.3352ZM48.2314 43.2254C48.7384 43.5181 48.741 43.9893 48.2373 44.282C47.7362 44.5733 46.9201 44.5747 46.4131 44.282C45.9087 43.9908 45.906 43.5166 46.4072 43.2254C46.9109 42.9327 47.727 42.9342 48.2314 43.2254ZM47.6982 40.6868C48.2051 40.9795 48.2078 41.4508 47.7041 41.7435C47.203 42.0347 46.3869 42.0362 45.8799 41.7435C45.3755 41.4522 45.3728 40.9781 45.874 40.6868C46.3776 40.3941 47.1937 40.3956 47.6982 40.6868ZM51.7784 41.1505C52.2854 41.4432 52.288 41.9144 51.7844 42.2071C51.2832 42.4984 50.4671 42.4998 49.9602 42.2071C49.4558 41.9159 49.4531 41.4417 49.9542 41.1505C50.4579 40.8578 51.274 40.8593 51.7784 41.1505ZM51.3032 38.7626C51.8101 39.0553 51.8128 39.5266 51.3091 39.8193C50.808 40.1105 49.9919 40.112 49.4849 39.8193C48.9805 39.528 48.9778 39.0539 49.479 38.7626C49.9826 38.4699 50.7987 38.4714 51.3032 38.7626ZM55.1864 39.1451C55.6933 39.4378 55.696 39.9091 55.1923 40.2018C54.6912 40.493 53.8751 40.4945 53.3681 40.2018C52.8637 39.9106 52.861 39.4364 53.3622 39.1452C53.8658 38.8525 54.6819 38.8539 55.1864 39.1451ZM54.7343 36.6877C55.2413 36.9804 55.2439 37.4517 54.7402 37.7444C54.2391 38.0356 53.423 38.0371 52.9161 37.7444C52.4116 37.4531 52.4089 36.979 52.9101 36.6877C53.4138 36.395 54.2299 36.3965 54.7343 36.6877ZM58.3509 37.3253C58.8578 37.618 58.8605 38.0892 58.3568 38.3819C57.8557 38.6731 57.0396 38.6746 56.5326 38.3819C56.0282 38.0907 56.0255 37.6165 56.5267 37.3253C57.0303 37.0326 57.8465 37.034 58.3509 37.3253Z" fill="#5094FF"/>
<path d="M63.5242 37.7189C64.0312 38.0116 64.0338 38.4829 63.5302 38.7756C63.029 39.0668 62.2129 39.0683 61.706 38.7756C61.2015 38.4843 61.1989 38.0102 61.7 37.7189C62.2037 37.4262 63.0198 37.4277 63.5242 37.7189ZM66.8394 35.7484C67.3464 36.041 67.349 36.5123 66.8454 36.805C66.3442 37.0962 65.5281 37.0977 65.0212 36.805C64.5167 36.5138 64.5141 36.0396 65.0152 35.7484C65.5189 35.4557 66.335 35.4571 66.8394 35.7484ZM69.8771 34.9597C69.3879 35.1178 68.7555 35.0761 68.335 34.8345C67.9144 34.5899 67.8428 34.217 68.1232 33.9366L69.8771 34.9597ZM67.3263 38.2536C67.8332 38.5463 67.8359 39.0175 67.3322 39.3102C66.8311 39.6015 66.015 39.603 65.508 39.3103C65.0036 39.019 65.0009 38.5449 65.5021 38.2536C66.0057 37.9609 66.8218 37.9624 67.3263 38.2536ZM70.7806 36.2722C71.2875 36.5649 71.2902 37.0361 70.7865 37.3288C70.2854 37.62 69.4693 37.6215 68.9623 37.3288C68.4579 37.0376 68.4552 36.5634 68.9564 36.2722C69.46 35.9795 70.2761 35.9809 70.7806 36.2722ZM75.1836 38.041C74.6825 38.2588 73.9666 38.2349 73.5073 37.9694C73.0479 37.704 73.0032 37.2864 73.382 36.994L75.1836 38.041ZM71.789 38.8611C72.296 39.1538 72.2986 39.625 71.795 39.9177C71.2938 40.2089 70.4778 40.2104 69.9708 39.9177C69.4664 39.6265 69.4637 39.1523 69.9649 38.8611C70.4685 38.5684 71.2846 38.5698 71.789 38.8611ZM68.5202 40.7969C69.0272 41.0896 69.0298 41.5608 68.5261 41.8535C68.025 42.1447 67.2089 42.1462 66.702 41.8535C66.1975 41.5623 66.1949 41.0881 66.696 40.7969C67.1997 40.5042 68.0158 40.5056 68.5202 40.7969ZM70.0704 45.9161C70.5773 46.2088 70.58 46.6801 70.0763 46.9728C69.5752 47.264 68.7591 47.2655 68.2521 46.9728C67.7477 46.6816 67.745 46.2074 68.2462 45.9161C68.7498 45.6235 69.5659 45.6249 70.0704 45.9161ZM66.5349 47.8635C67.0419 48.1562 67.0445 48.6275 66.5409 48.9202C66.0397 49.2114 65.2236 49.2129 64.7167 48.9202C64.2122 48.629 64.2096 48.1548 64.7107 47.8635C65.2144 47.5708 66.0305 47.5723 66.5349 47.8635ZM63.2661 49.7993C63.773 50.092 63.7757 50.5633 63.272 50.856C62.7709 51.1472 61.9548 51.1487 61.4478 50.856C60.9434 50.5648 60.9407 50.0906 61.4419 49.7993C61.9456 49.5066 62.7617 49.5081 63.2661 49.7993ZM59.7306 51.8163C60.2376 52.109 60.2402 52.5802 59.7366 52.8729C59.2354 53.1642 58.4194 53.1656 57.9124 52.8729C57.408 52.5817 57.4053 52.1075 57.9064 51.8163C58.4101 51.5236 59.2262 51.525 59.7306 51.8163ZM56.4537 53.7459C56.9606 54.0386 56.9633 54.5099 56.4596 54.8026C55.9585 55.0938 55.1424 55.0953 54.6354 54.8026C54.131 54.5113 54.1283 54.0372 54.6295 53.7459C55.1331 53.4532 55.9492 53.4547 56.4537 53.7459ZM80.4857 41.1573C79.9967 41.3203 79.3608 41.2798 78.9404 41.0363C78.5164 40.7915 78.4458 40.4158 78.7368 40.1297L80.4857 41.1573ZM77.2224 41.9283C77.7294 42.221 77.732 42.6922 77.2283 42.9849C76.7272 43.2761 75.9111 43.2776 75.4042 42.9849C74.8997 42.6937 74.8971 42.2195 75.3982 41.9283C75.9019 41.6356 76.718 41.637 77.2224 41.9283ZM73.9536 43.8641C74.4605 44.1568 74.4632 44.628 73.9595 44.9207C73.4583 45.2119 72.6423 45.2134 72.1353 44.9207C71.6309 44.6295 71.6282 44.1553 72.1294 43.8641C72.633 43.5714 73.4491 43.5728 73.9536 43.8641ZM72.0707 41.3192C72.5777 41.6119 72.5803 42.0832 72.0767 42.3759C71.5755 42.6671 70.7594 42.6686 70.2525 42.3759C69.748 42.0846 69.7454 41.6105 70.2465 41.3192C70.7502 41.0265 71.5663 41.028 72.0707 41.3192ZM75.61 39.3595C76.117 39.6522 76.1196 40.1234 75.616 40.4161C75.1148 40.7074 74.2987 40.7089 73.7918 40.4162C73.2873 40.1249 73.2847 39.6508 73.7858 39.3595C74.2895 39.0668 75.1056 39.0683 75.61 39.3595ZM58.3857 34.7515C58.8926 35.0442 58.8953 35.5154 58.3916 35.8081C57.8904 36.0993 57.0744 36.1008 56.5674 35.8081C56.063 35.5169 56.0603 35.0427 56.5615 34.7515C57.0651 34.4588 57.8812 34.4602 58.3857 34.7515ZM62.4659 35.2151C62.9729 35.5078 62.9755 35.9791 62.4718 36.2718C61.9707 36.563 61.1546 36.5645 60.6477 36.2718C60.1432 35.9806 60.1406 35.5064 60.6417 35.2151C61.1454 34.9224 61.9615 34.9239 62.4659 35.2151ZM61.9906 32.8273C62.4976 33.12 62.5003 33.5912 61.9966 33.8839C61.4954 34.1751 60.6794 34.1766 60.1724 33.8839C59.668 33.5927 59.6653 33.1185 60.1665 32.8273C60.6701 32.5346 61.4862 32.536 61.9906 32.8273ZM65.8738 33.2098C66.3808 33.5025 66.3835 33.9737 65.8798 34.2664C65.3786 34.5577 64.5626 34.5591 64.0556 34.2664C63.5512 33.9752 63.5485 33.501 64.0497 33.2098C64.5533 32.9171 65.3694 32.9186 65.8738 33.2098ZM64.8003 32.0067C64.3856 32.0634 63.9322 31.9977 63.6041 31.8098C63.276 31.6189 63.1597 31.3534 63.2581 31.1118L64.8003 32.0067Z" fill="#5094FF"/>
<path d="M43.0158 49.4243C43.0187 49.4433 43.0207 49.4555 43.0213 49.4608C43.0178 49.4488 43.0161 49.4366 43.0158 49.4243Z" fill="#455368"/>
<path d="M44.4732 48.3411C44.4706 48.3031 43.9895 49.3019 43.6991 48.914C43.4087 48.526 44.3166 47.3209 44.3166 47.3209C44.777 46.7398 45.3516 46.6094 46.0312 46.8932C46.1512 46.8875 44.4743 48.3591 44.4732 48.3411Z" fill="#F5C9C6"/>
<path d="M44.4662 49.5778C44.3682 48.8441 44.4568 48.2124 44.4556 48.1944C44.4531 48.1564 44.2991 47.1741 44.2991 47.1741C44.7595 46.5931 45.3341 46.4626 46.0137 46.7465C46.1337 46.7408 47.0548 48.06 46.9053 49.4083C46.7747 50.3931 44.5198 50.3485 44.4662 49.5778Z" fill="#F5C9C6"/>
<path d="M44.1097 47.6703C44.0116 47.1806 46.2939 46.7233 46.392 47.213L46.2866 46.6887C46.1885 46.1991 43.9062 46.6564 44.0044 47.146L44.1097 47.6703Z" fill="#DEDFFB"/>
<path d="M43.9804 47.514C43.9821 47.5283 43.9833 47.5382 43.9839 47.5434C43.9815 47.5335 43.9804 47.5239 43.9804 47.514ZM46.3958 46.9782C46.3402 46.7426 45.8102 46.7324 45.261 46.84C44.6316 46.963 43.9766 47.2405 43.9801 47.5111C43.9209 47.0222 43.2787 41.7674 42.7811 40.0207C42.373 38.5891 40.4799 34.5283 40.4799 34.5283L41.9287 32.0601L42.8563 30.4795C42.8563 30.4795 44.5048 31.3619 46.1043 40.1956C46.3582 41.5986 46.3958 46.9782 46.3958 46.9782Z" fill="#455368"/>
<path d="M43.9804 47.5139C43.9821 47.5282 43.9833 47.5381 43.9839 47.5434C43.9815 47.5334 43.9804 47.5238 43.9804 47.5139Z" fill="#455368"/>
<path d="M45.261 46.84C44.6316 46.963 43.9766 47.2405 43.9801 47.511C43.9209 47.0222 43.2787 41.7674 42.7811 40.0207C42.373 38.589 40.4799 34.5283 40.4799 34.5283L41.9287 32.0601C42.7455 33.8724 43.7201 36.5607 44.6013 40.3903C44.8121 41.3062 45.0937 44.6598 45.261 46.84Z" fill="#1D2943"/>
<path d="M32.0248 66.357C31.8969 66.4823 31.862 66.8852 31.7776 67.214C31.7169 67.4504 31.686 67.694 31.6808 67.938C31.6605 68.8799 31.8786 69.732 32.3416 70.4917C32.5819 70.8861 32.9982 71.1517 33.4598 71.1687C33.4947 71.17 33.5298 71.1701 33.5649 71.1692C34.3604 71.1484 34.9625 70.4367 34.8971 69.6437C34.7861 68.2978 34.5767 67.0984 34.2754 66.0359L32.0248 66.357Z" fill="#F45170"/>
<path d="M32.0959 66.5322L32.0043 67.1172C31.9336 67.5682 32.0208 68.0341 32.2698 68.4167C32.4866 68.7498 32.8364 69.0392 33.3915 68.9901C34.1476 68.9147 34.4887 68.4725 34.4085 67.6582L34.2754 66.0357L32.4833 65.9873L32.0959 66.5322Z" fill="#F4D6D4"/>
<path d="M36.6063 64.8223C36.1692 65.2473 35.8945 65.8419 35.9194 66.4933C35.9372 66.96 36.2556 67.3704 36.7059 67.4944C36.8925 67.5458 37.0996 67.5725 37.3205 67.5825C37.7605 67.6945 38.2221 67.9526 38.694 68.2808C39.0066 68.4981 39.3596 68.6524 39.731 68.7359C40.2977 68.8631 40.7575 68.8958 41.1016 68.826C41.6605 68.7126 41.9177 68.0774 41.6078 67.5986C41.2534 67.0511 40.657 66.6083 40.0176 66.184L38.7644 65.4485L37.82 64.7129L36.6063 64.8223Z" fill="#F45170"/>
<path d="M36.6654 64.9145L36.7177 65.6474C36.7359 65.902 36.8644 66.1358 37.0702 66.2868C37.5623 66.6481 38.5645 67.3133 39.7315 67.6951C39.9352 67.7618 40.1517 67.7874 40.364 67.7589C40.7514 67.707 40.8698 67.5074 40.7158 67.1582C40.6462 67.0004 40.536 66.8638 40.4034 66.7534L39.281 65.8184C39.0978 65.6658 38.9614 65.4645 38.8876 65.2377L38.5132 64.0864L36.7454 64.2923L36.6654 64.9145Z" fill="#F4D6D4"/>
<path d="M35.5664 51.918C34.6711 57.4724 34.0047 62.7874 34.2754 66.0358C34.0151 66.2389 33.7132 66.3846 33.4009 66.4731C32.9688 66.5928 32.5159 66.6137 32.0942 66.5303C29.9911 61.4444 30.6939 53.4484 30.6939 53.4484L35.5664 51.918Z" fill="#B0B8CF"/>
<path d="M35.5664 51.918C34.6711 57.4724 34.0047 62.7874 34.2754 66.0358C34.0151 66.2389 33.7132 66.3846 33.4009 66.4731C31.5476 61.3819 32.2036 53.9221 32.2036 53.9221L35.5664 51.918Z" fill="#C9CEE2"/>
<path d="M39.5327 52.9773V51.8151H37.7057V51.0928L35.6809 52.2147C35.4415 56.9623 35.4415 61.3715 36.5191 64.7865C36.5399 64.8489 36.5868 64.8957 36.6492 64.9114C37.0761 65.0155 37.5134 65.052 37.9194 64.9686C38.1901 64.9166 38.4504 64.8021 38.6898 64.6198C38.7315 64.5886 38.7575 64.5418 38.7627 64.4897C38.9917 60.8858 39.498 57.0147 40.184 52.9773H39.5327Z" fill="#B0B8CF"/>
<path d="M39.2419 52.8346V51.8152H37.8781L37.0969 52.4646C36.8574 57.1757 36.8574 61.5642 37.9194 64.9687C38.1901 64.9166 38.4504 64.8021 38.6898 64.6199C38.7315 64.5887 38.7575 64.5418 38.7627 64.4897C38.9945 60.8432 39.5091 56.924 40.2077 52.8346H39.2419Z" fill="#C9CEE2"/>
<path d="M40.6739 53.7118C40.826 54.318 40.5139 54.9409 39.9445 55.1987C36.9108 56.5718 33.813 56.9271 30.6508 56.2464C30.2267 56.1551 29.8754 55.8427 29.7304 55.4338C28.036 50.6538 28.238 45.5 30.8887 42.4218C31.1111 42.1622 31.3518 41.918 31.6099 41.6897L34.4817 30.3238C37.8769 29.3534 41.2001 29.963 42.5507 30.2952C42.9171 30.3853 43.1619 30.7317 43.1251 31.1073C42.8043 34.3824 42.0903 37.2102 40.6549 39.2166C40.1282 39.9529 39.8646 40.8454 39.8363 41.7502C39.8249 42.1149 39.8154 42.477 39.808 42.8362C39.7397 46.2633 39.8369 50.3749 40.6739 53.7118Z" fill="#4C5C75"/>
<path d="M40.3831 52.37C38.3292 53.6023 33.4406 54.3701 33.149 53.0076L32.7092 43.644L30.8886 42.4218C31.1111 42.1623 31.3518 41.918 31.6099 41.6897C31.6099 41.6897 35.7293 44.5681 39.808 42.8362C39.7375 46.3719 39.8713 49.6283 40.3831 52.37Z" fill="#F3F1FC"/>
<path d="M33.7023 49.1653C33.6936 49.1282 34.4467 49.9418 34.6104 49.4857C34.7741 49.0296 33.5525 48.144 33.5525 48.144C32.9419 47.7236 32.3543 47.7676 31.7879 48.2383C31.6715 48.2681 33.7065 49.1828 33.7023 49.1653Z" fill="#F5C9C6"/>
<path d="M27.2772 66.2638C27.3041 66.4661 27.2435 66.6144 27.1356 66.675L19.6736 70.9891C19.7006 70.9756 19.7208 70.9554 19.741 70.9284C19.6534 71.0363 19.4984 71.0565 19.3231 70.9554L8.55812 64.7404C8.24133 64.5585 7.98518 64.1135 7.98518 63.7496L7.99867 59.9208C7.99867 59.2063 8.26153 58.7142 8.69295 58.4715L16.1415 54.171C16.6403 53.8811 17.3615 53.935 18.1637 54.4002C18.1772 54.4069 18.1974 54.4204 18.2109 54.4271C21.406 56.328 24.2843 59.3681 26.5357 63.9518C26.9266 64.7404 27.176 65.5291 27.2772 66.2638Z" fill="#FEBC1F"/>
<path d="M27.1374 66.6762L19.672 70.9885C19.7788 70.9263 19.8359 70.7802 19.8088 70.5762C19.7106 69.8428 19.4595 69.0507 19.0724 68.2634C16.8185 63.6776 13.9437 60.6416 10.7452 58.7395C10.7295 58.7302 10.7142 58.7214 10.6987 58.7123C9.89553 58.2487 9.17201 58.1926 8.67624 58.4807L16.1417 54.1684C16.6374 53.8803 17.3611 53.9364 18.1643 54.4C18.1798 54.4091 18.1951 54.4179 18.2106 54.4272C21.4093 56.3293 24.2839 59.3653 26.538 63.9511C26.9251 64.7384 27.1762 65.5305 27.2744 66.2639C27.3016 66.4679 27.2444 66.614 27.1374 66.6762Z" fill="#FFD06C"/>
<path d="M10.6988 58.7123C10.7143 58.7212 10.7296 58.7302 10.7451 58.7394C13.9438 60.6415 16.8184 63.6775 19.0724 68.2632C19.4595 69.0507 19.7106 69.8426 19.8087 70.5762C19.8586 70.9499 19.6252 71.1295 19.3212 70.954L8.55974 64.7408C8.24192 64.5573 7.9852 64.1127 7.98624 63.7475L7.99709 59.918C8.00142 58.3908 9.21428 57.8553 10.6988 58.7123Z" fill="#FEBC1F"/>
<path d="M24.7533 63.1463L19.9357 65.9289L19.3784 66.2509C18.6221 64.901 17.7909 63.6658 16.8877 62.5489L22.2365 59.4595C23.1489 60.5486 23.9916 61.7832 24.7533 63.1463Z" fill="#4C5C75"/>
<path d="M19.5277 65.6998C18.9003 64.6156 18.2178 63.5975 17.4926 62.6641L22.1426 59.9783C22.8787 60.8871 23.5709 61.9001 24.2059 62.9976L19.5277 65.6998ZM13.4047 67.0592C13.4047 67.74 13.1688 68.2119 12.7846 68.4343L11.9285 68.9264C11.9757 68.8995 12.0161 68.8725 12.0566 68.8388C11.6656 69.1556 11.0724 69.1556 10.4118 68.7714C9.2322 68.0906 8.27503 66.4323 8.28177 65.0774C8.28177 64.3427 8.55813 63.8506 9.00304 63.6551L9.75125 63.217C10.1422 62.9946 10.6747 63.0215 11.2747 63.3653C12.461 64.0529 13.4182 65.6976 13.4047 67.0592Z" fill="#1D2943"/>
<path d="M13.4074 67.0621C13.4074 67.7399 13.166 68.2135 12.7853 68.4363L11.9318 68.9264C12.3218 68.7036 12.5539 68.2208 12.5632 67.5522C12.5632 66.1874 11.6161 64.544 10.4277 63.8569C9.83343 63.5134 9.2949 63.4763 8.90495 63.7084L9.74917 63.2182C10.1391 62.9954 10.6777 63.0233 11.2719 63.3668C12.4603 64.0539 13.4167 65.6973 13.4074 67.0621Z" fill="#1D2943"/>
<path d="M11.9352 68.9229C12.7695 68.4381 12.7672 66.8773 11.9301 65.437C11.093 63.9966 9.73813 63.222 8.90383 63.7068C8.06953 64.1917 8.07179 65.7524 8.90887 67.1928C9.74595 68.6331 11.1009 69.4078 11.9352 68.9229Z" fill="#4C5C75"/>
<path d="M11.3741 68.5604C11.1674 68.5604 10.9231 68.4821 10.6669 68.3344C9.64509 67.7447 8.7843 66.255 8.78727 65.081C8.78826 64.7767 8.85615 64.0696 9.46619 64.0696C9.67284 64.0696 9.91764 64.1479 10.1734 64.2956C11.1952 64.8858 12.056 66.3754 12.0525 67.5489C12.0515 67.8532 11.9836 68.5604 11.3741 68.5604Z" fill="#1D2943"/>
<path d="M10.9241 66.6278C10.9241 66.803 10.8635 66.9244 10.7624 66.9783L10.5399 67.1064C10.5534 67.0996 10.5669 67.0862 10.5803 67.0727C10.486 67.1671 10.3242 67.1738 10.149 67.0727C9.84563 66.8974 9.60293 66.4728 9.60293 66.129C9.60293 65.947 9.67036 65.8257 9.7782 65.7717C9.7782 65.765 9.78495 65.765 9.79169 65.765L9.98716 65.6504C10.0883 65.5897 10.2299 65.5965 10.3781 65.6841C10.6815 65.8594 10.9241 66.284 10.9241 66.6278Z" fill="#DEDFFB"/>
<path d="M10.9229 66.6289C10.9229 66.8018 10.8614 66.9226 10.7643 66.9795L10.5367 67.109C10.6361 67.0522 10.6954 66.929 10.6977 66.7585C10.6977 66.4103 10.4561 65.9911 10.153 65.8158C10.0014 65.7282 9.86401 65.7187 9.76453 65.7779L9.98975 65.6484C10.0892 65.5915 10.2266 65.5986 10.3782 65.6863C10.6814 65.8615 10.9253 66.2808 10.9229 66.6289Z" fill="#DEDFFB"/>
<path d="M10.5378 67.109C10.7505 66.9853 10.7498 66.5871 10.5362 66.2195C10.3226 65.8519 9.97694 65.6542 9.76418 65.7778C9.55142 65.9015 9.55212 66.2997 9.76574 66.6673C9.97936 67.0349 10.325 67.2326 10.5378 67.109Z" fill="white"/>
<path d="M54.9006 68.5825L54.8939 69.0746L46.0298 75.2828L41.6079 73.119L41.6146 72.6202L50.4787 66.4187L54.9006 68.5825Z" fill="#111D33"/>
<path d="M46.0359 74.784L46.0312 75.2801L41.6059 73.1177L41.6113 72.6216L46.0359 74.784Z" fill="#111D33"/>
<path d="M54.9013 68.5804L46.0359 74.7839L41.6113 72.6215L50.4767 66.418L54.9013 68.5804Z" fill="#4C5C75"/>
<path d="M20.4878 61.6481C21.0078 61.3479 21.6337 61.6461 21.8856 62.3142C22.1375 62.9824 21.9202 63.7675 21.4001 64.0678C20.8802 64.368 20.2544 64.0697 20.0024 63.4014C19.7505 62.7334 19.9678 61.9483 20.4878 61.6481Z" fill="#4C5C75"/>
<path d="M21.2604 63.6979C20.8948 63.9078 20.4841 63.6923 20.3078 63.2784C20.266 63.1781 20.2379 63.0773 20.225 62.9606C20.1857 62.609 20.3111 62.2312 20.5847 62.0447C20.9302 61.8045 21.4069 61.9745 21.5974 62.4805C21.626 62.5558 21.6487 62.6436 21.6601 62.7315C21.6983 63.0181 21.5733 63.5168 21.2604 63.6979Z" fill="#111D33"/>
<path d="M48.9399 70.1149C49.3925 70.2939 49.3356 70.7367 48.8129 71.1042C48.2901 71.4718 47.4998 71.6245 47.0472 71.4455C46.5947 71.2666 46.6516 70.8238 47.1744 70.4562C47.6971 70.0887 48.4874 69.936 48.9399 70.1149Z" fill="#111D33"/>
<path d="M48.5914 70.989C48.1802 71.2788 47.5601 71.4002 47.2028 71.2586C47.0815 71.2114 47.0073 71.1373 46.9804 71.0497L45.9018 67.686C45.8412 67.5242 45.9558 67.3085 46.2254 67.1198C46.6366 66.83 47.2567 66.7086 47.6072 66.8502C47.7286 66.8973 47.8027 66.9715 47.8364 67.0591L48.9149 70.4227C48.9689 70.5913 48.8543 70.8002 48.5914 70.989Z" fill="#1D2943"/>
<path d="M47.8364 67.0618L48.9149 70.4257C48.9676 70.5899 48.8557 70.8028 48.5887 70.9905C48.1789 71.2786 47.5595 71.3983 47.2047 71.258C47.0813 71.2092 47.0062 71.1353 46.9781 71.0476L45.8996 67.6837C45.9277 67.7714 46.0028 67.8453 46.1262 67.8941C46.481 68.0344 47.1004 67.9147 47.5101 67.6266C47.7772 67.4389 47.8891 67.2261 47.8364 67.0618Z" fill="#1D2943"/>
<path d="M47.6098 66.8514C47.9645 66.9917 47.9199 67.3387 47.5103 67.6268C47.1005 67.9148 46.4811 68.0346 46.1264 67.8943C45.7717 67.754 45.8163 67.407 46.2261 67.1189C46.6357 66.8309 47.2551 66.7112 47.6098 66.8514Z" fill="#4C5C75"/>
<path d="M46.4564 67.5748C46.359 67.0241 46.2159 66.5749 46.0876 65.8848C45.5804 63.1563 44.8857 59.4194 44.7971 57.155C44.7353 55.5764 44.6388 54.0419 44.147 52.6208C43.2903 50.144 41.7002 49.1136 39.6959 48.8711C37.9927 48.665 36.8488 48.9642 35.2046 49.3218C33.2899 49.7372 30.9621 51.4357 29.5018 54.487C28.3573 56.8783 27.8649 59.5287 27.5638 61.5705C27.2916 63.4122 27.3061 64.9557 25.3987 64.9418C23.4085 64.9256 21.3186 63.6963 20.3078 63.2785C20.1819 62.9997 20.1967 62.6395 20.2907 62.4321C21.9353 63.0977 23.636 64.1403 25.4052 64.1547C25.5938 64.1562 25.8334 64.1463 26.0112 64.0539C26.5862 63.7558 26.6105 62.6375 26.7852 61.4559C27.0942 59.3591 27.602 56.6337 28.7916 54.1474C29.3245 53.0341 29.9906 52.0395 30.7713 51.1915C31.6149 50.275 32.5755 49.55 33.6258 49.0369C34.3371 48.6898 34.894 48.5838 35.4372 48.465C36.9152 48.1397 38.0824 47.8829 39.7907 48.0898C41.4025 48.2847 42.6368 48.8335 43.7042 50.1724C44.1995 50.7933 44.6096 51.5509 44.8909 52.3634C45.418 53.8862 45.5191 55.4843 45.5836 57.1241C45.6699 59.3314 46.3587 63.0362 46.8616 65.7411C46.9901 66.4329 47.0886 66.6543 47.1863 67.2088C47.2628 67.5222 46.5622 67.7859 46.4564 67.5748Z" fill="#B0B8CF"/>
<path d="M34.0719 50.3453C33.9503 49.6151 33.6803 49.0373 33.6761 49.0198C33.6673 48.9827 33.5263 47.9984 33.5263 47.9984C32.9156 47.5781 32.328 47.6221 31.7616 48.0928C31.6453 48.1226 31.1519 49.6541 31.6905 50.8991C32.1044 51.8022 34.2469 51.0978 34.0719 50.3453Z" fill="#F5C9C6"/>
<path d="M31.4805 46.718C31.562 47.4652 31.6236 47.9534 31.6236 47.9534C31.5968 48.4406 33.5603 48.5485 33.5871 48.0613C33.5871 48.0613 33.6102 47.5188 33.652 46.718H31.4805Z" fill="#DEDFFB"/>
<path d="M36.3629 32.4611C35.7079 34.5119 34.6605 37.7439 34.3969 39.1813C34.0139 41.2703 33.7425 47.6512 33.7425 47.6512C33.7282 47.9133 33.228 48.0258 32.7015 48.0144C32.0998 48.0016 31.4635 47.8264 31.4801 47.527C31.4801 47.527 30.5405 40.4955 30.8886 38.0966C31.0979 36.6539 32.4969 33.2202 33.2283 31.3487C33.5157 30.6132 34.2803 30.1815 35.0584 30.3144C35.2353 30.3448 35.4 30.4013 35.5499 30.4797C36.2445 30.8427 36.6159 31.6685 36.3629 32.4611Z" fill="#1D2943"/>
<path d="M36.3629 32.4611C35.7079 34.5119 34.6605 37.7439 34.3969 39.1814C34.0139 41.2703 33.7425 47.6512 33.7425 47.6512C33.7282 47.9133 33.228 48.0258 32.7015 48.0144C32.5237 45.7686 32.1083 39.8766 32.475 37.9646C32.7479 36.5397 34.7269 32.3305 35.5499 30.4797C36.2445 30.8427 36.6159 31.6685 36.3629 32.4611Z" fill="#455368"/>
<path d="M38.9 27.5527L37.7967 29.8175C37.43 31.1687 39.1692 32.3543 40.5912 31.8923C40.759 31.8378 40.8755 31.6871 40.8937 31.5116C40.9705 30.7717 41.2873 30.0678 41.7415 29.3844C42.3959 29.3698 42.9759 29.0124 43.2933 28.4715L38.9 27.5527Z" fill="#F5C9C6"/>
<path d="M37.6701 22.6777C37.6701 22.6777 35.7094 22.7993 35.8417 25.1613C35.8928 27.0842 35.2823 29.4518 34.5709 30.1567C34.5307 30.1965 34.5597 30.2651 34.6162 30.2627C34.9783 30.2474 35.3332 30.1462 35.6806 29.9577C36.3675 29.5849 36.8615 28.9347 37.0772 28.1835L37.8066 25.6436L37.6701 22.6777Z" fill="#1D2943"/>
<path d="M37.3279 24.3777C37.3279 24.3777 40.666 23.141 40.7079 23.1472C40.7497 23.1535 43.497 23.4943 43.497 23.4943L44.8742 24.2736C45.0378 24.3429 43.8829 30.3354 41.8691 31.3942C39.8837 32.4379 37.2166 28.0873 37.0712 26.6017C37.0219 26.1504 37.1773 25.2588 37.3279 24.3777Z" fill="#F4D6D4"/>
<path d="M37.0712 26.6018C37.0712 26.6018 36.931 25.4671 37.6558 25.5991C37.8628 25.6368 38.0429 25.7623 38.1679 25.9314C38.3156 26.1312 38.5414 26.4535 38.6782 26.7305C38.7493 26.8744 38.9392 26.904 39.0589 26.7971C39.3972 26.4949 39.6664 26.1505 39.8255 25.7389C40.1322 24.8835 40.632 24.5298 41.277 24.5534C41.5535 24.5636 41.8213 24.6558 42.0589 24.7976C43.273 25.522 44.3918 25.8721 44.8472 25.1434C45.0107 24.8818 45.0531 24.5649 45.0087 24.2597C44.8327 23.0485 44.0714 22.1634 43.0782 21.5975C42.5992 21.3246 42.0723 21.1518 41.5283 21.0622C39.7685 20.7726 38.431 21.2233 37.7274 22.5557C37.06 23.9462 36.8252 25.2964 37.0712 26.6018Z" fill="#4C5C75"/>
</svg>
