<svg width="36" height="36" viewBox="0 0 36 36" fill="none" xmlns="http://www.w3.org/2000/svg">
<circle cx="18" cy="18" r="18" fill="#F8D067"/>
<path d="M10.9972 18.4629C10.9958 18.8063 11.273 19.086 11.6165 19.0874L12.1638 19.0897C12.5072 19.0912 12.7868 18.814 12.7883 18.4705C12.7898 18.127 12.5125 17.8474 12.169 17.8459L11.6218 17.8436C11.2783 17.8422 10.9987 18.1194 10.9972 18.4629ZM13.0602 22.8867C12.8329 23.1214 12.8314 23.4936 13.0566 23.7302C13.2952 23.9809 13.6945 23.9826 13.9353 23.734L14.3593 23.2961C14.5865 23.0614 14.5881 22.6892 14.3628 22.4525C14.1242 22.2018 13.7249 22.2001 13.4842 22.4488L13.0602 22.8867ZM13.1013 13.2132C12.874 13.4479 12.8724 13.8201 13.0977 14.0567L13.5179 14.4982C13.7566 14.7489 14.1559 14.7506 14.3966 14.502C14.6238 14.2673 14.6254 13.8951 14.4002 13.6584L13.9799 13.2169C13.7413 12.9662 13.342 12.9645 13.1013 13.2132ZM13.9824 18.4756C13.9775 19.6301 14.4131 20.7393 15.1933 21.559C15.9736 22.3788 17.0347 22.8419 18.1431 22.8466C19.2515 22.8513 20.3164 22.3972 21.1036 21.5841C21.8908 20.771 22.3358 19.6656 22.3407 18.5111C22.3456 17.3565 21.91 16.2473 21.1298 15.4276C20.3495 14.6079 19.2884 14.1447 18.18 14.14C17.0716 14.1353 16.0067 14.5894 15.2195 15.4025C14.4323 16.2156 13.9873 17.321 13.9824 18.4756ZM17.5354 25.3566C17.534 25.6863 17.8001 25.9547 18.1299 25.9561C18.4596 25.9575 18.728 25.6914 18.7294 25.3617L18.7323 24.69C18.7337 24.3603 18.4675 24.0918 18.1378 24.0904C17.8081 24.089 17.5396 24.3552 17.5382 24.6849L17.5354 25.3566ZM17.5908 12.2966C17.5894 12.6263 17.8556 12.8948 18.1853 12.8962C18.515 12.8976 18.7835 12.6314 18.7849 12.3017L18.7877 11.63C18.7891 11.3003 18.523 11.0319 18.1932 11.0305C17.8635 11.0291 17.5951 11.2952 17.5937 11.625L17.5908 12.2966ZM21.9265 22.4847C21.6993 22.7194 21.6977 23.0916 21.9229 23.3282L22.3432 23.7697C22.5818 24.0204 22.9811 24.0221 23.2218 23.7734C23.4491 23.5387 23.4507 23.1665 23.2254 22.9299L22.8052 22.4884C22.5665 22.2377 22.1672 22.236 21.9265 22.4847ZM21.9638 13.6906C21.7366 13.9253 21.735 14.2975 21.9603 14.5341C22.1989 14.7848 22.5982 14.7865 22.8389 14.5378L23.2629 14.0999C23.4902 13.8652 23.4917 13.493 23.2665 13.2564C23.0279 13.0057 22.6286 13.004 22.3878 13.2526L21.9638 13.6906ZM23.5348 18.5161C23.5333 18.8596 23.8106 19.1392 24.1541 19.1407L24.7013 19.143C25.0448 19.1445 25.3244 18.8672 25.3259 18.5237C25.3273 18.1803 25.0501 17.9006 24.7066 17.8992L24.1593 17.8969C23.8159 17.8954 23.5363 18.1727 23.5348 18.5161Z" fill="white"/>
</svg>
