<svg width="74" height="74" viewBox="0 0 74 74" fill="none" xmlns="http://www.w3.org/2000/svg">
<path d="M50.875 23.125H41.625V30.0625H50.875V23.125Z" fill="#CED6D9"/>
<path d="M50.875 30.0625H41.625L42.8599 29.8567C44.4534 29.5911 45.901 28.7689 46.9452 27.5362C47.9894 26.3036 48.5625 24.7405 48.5625 23.125H50.875V30.0625Z" fill="#AEBDC4"/>
<path d="M46.25 26.5938C44.5797 26.5936 42.9257 26.9224 41.3825 27.5615C39.8393 28.2006 38.4372 29.1375 37.2561 30.3186C36.075 31.4997 35.1381 32.9018 34.499 34.445C33.8599 35.9882 33.5311 37.6422 33.5313 39.3125V62.4375H58.9688V39.3125C58.9696 37.642 58.6413 35.9877 58.0024 34.4442C57.3636 32.9007 56.4267 31.4982 55.2455 30.317C54.0643 29.1358 52.6618 28.1989 51.1183 27.5601C49.5748 26.9212 47.9205 26.5929 46.25 26.5938Z" fill="#7B58BF"/>
<path d="M46.25 26.5938C42.8768 26.5938 39.6417 27.9338 37.2565 30.319C34.8713 32.7042 33.5312 35.9393 33.5312 39.3125V62.4375H37V41.5507C37.0014 38.4452 37.8672 35.4014 39.5003 32.76C41.1335 30.1187 43.4697 27.9841 46.2472 26.5951L46.25 26.5938Z" fill="#653CB2"/>
<path d="M48.5625 16.1875H43.9375V23.125H48.5625V16.1875Z" fill="#90A2AC"/>
<path d="M48.5625 16.1875H47.4062V18.3123C47.4063 19.3771 47.0713 20.4148 46.4487 21.2786C45.8261 22.1423 44.9476 22.7883 43.9375 23.125H48.5625V16.1875Z" fill="#778F9B"/>
<path d="M50.875 14.4531C50.8762 14.6506 50.8409 14.8466 50.7709 15.0313C50.6523 15.369 50.4318 15.6617 50.1398 15.8688C49.8477 16.0759 49.4986 16.1873 49.1406 16.1875H40.4688L39.6941 15.0313L38.1562 12.7188H49.1406C49.3685 12.7184 49.5941 12.7631 49.8047 12.8502C50.0153 12.9372 50.2066 13.0649 50.3677 13.2261C50.5288 13.3872 50.6565 13.5785 50.7436 13.7891C50.8307 13.9996 50.8753 14.2253 50.875 14.4531Z" fill="#CED6D9"/>
<path d="M54.3438 35.8438H38.1562V53.1875H54.3438V35.8438Z" fill="#EAE6F5"/>
<path d="M54.3438 35.8438V53.1875H38.1562C42.3357 52.866 46.2607 51.0542 49.2167 48.0821C52.1726 45.1099 53.9629 41.175 54.2615 36.9939L54.3438 35.8438Z" fill="#D1C3E7"/>
<path d="M48.5625 45.6719C48.5625 46.2852 48.3189 46.8734 47.8852 47.3071C47.4515 47.7407 46.8633 47.9844 46.25 47.9844C45.6367 47.9844 45.0485 47.7407 44.6148 47.3071C44.1811 46.8734 43.9375 46.2852 43.9375 45.6719C43.9375 44.3947 46.25 41.0469 46.25 41.0469C46.25 41.0469 48.5625 44.3947 48.5625 45.6719Z" fill="#B19EDA"/>
<path d="M58.9688 21.9688H62.4375V60.7031C62.4375 61.1631 62.2548 61.6043 61.9295 61.9295C61.6043 62.2548 61.1631 62.4375 60.7031 62.4375C60.2431 62.4375 59.802 62.2548 59.4767 61.9295C59.1515 61.6043 58.9688 61.1631 58.9688 60.7031V21.9688Z" fill="#BBDBFA"/>
<path d="M68.2188 21.9688H62.4375V35.8438H68.2188V21.9688Z" fill="#E6E6E6"/>
<path d="M68.2188 24.2812V26.5938H65.9062C65.5996 26.5938 65.3055 26.4719 65.0887 26.2551C64.8718 26.0383 64.75 25.7442 64.75 25.4375C64.75 25.1308 64.8718 24.8367 65.0887 24.6199C65.3055 24.4031 65.5996 24.2812 65.9062 24.2812H68.2188ZM68.2188 27.75V30.0625H65.9062C65.5996 30.0625 65.3055 29.9407 65.0887 29.7238C64.8718 29.507 64.75 29.2129 64.75 28.9062C64.75 28.5996 64.8718 28.3055 65.0887 28.0887C65.3055 27.8718 65.5996 27.75 65.9062 27.75H68.2188ZM68.2188 31.2188V33.5312H65.9062C65.5996 33.5312 65.3055 33.4094 65.0887 33.1926C64.8718 32.9758 64.75 32.6817 64.75 32.375C64.75 32.0683 64.8718 31.7742 65.0887 31.5574C65.3055 31.3406 65.5996 31.2188 65.9062 31.2188H68.2188Z" fill="#F2F2F2"/>
<path d="M35.8438 21.9688H21.9688V25.4375H35.8438V21.9688Z" fill="#DDF0EE"/>
<path d="M31.336 57.8125H26.4765C26.1912 57.8125 25.9159 57.707 25.7037 57.5163C25.4915 57.3256 25.3572 57.0631 25.3268 56.7794L21.9688 25.4375H35.8438L32.4857 56.7794C32.4553 57.0631 32.321 57.3256 32.1088 57.5163C31.8966 57.707 31.6213 57.8125 31.336 57.8125Z" fill="#4DB5A7"/>
<path d="M26.4765 57.8125C26.1912 57.8125 25.9159 57.707 25.7037 57.5163C25.4915 57.3256 25.3572 57.0631 25.3268 56.7794L21.9688 25.4375C22.6467 25.4375 23.3179 25.5729 23.9428 25.8357C24.5678 26.0985 25.134 26.4834 25.6082 26.968C26.0825 27.4525 26.4552 28.0268 26.7045 28.6573C26.9538 29.2877 27.0747 29.9617 27.0602 30.6395L26.4765 57.8125Z" fill="#24A599"/>
<path d="M31.2188 57.8125H26.5938V62.4375H31.2188V57.8125Z" fill="#CED6D9"/>
<path d="M20.9129 55.5H9.14964C8.861 55.5 8.58281 55.392 8.36973 55.1973C8.15666 55.0026 8.02411 54.7353 7.99813 54.4478L5.78125 30.0625H24.2812L22.0644 54.4484C22.0384 54.7359 21.9058 55.0032 21.6928 55.1979C21.4797 55.3926 21.2015 55.5 20.9129 55.5Z" fill="#ED6291"/>
<path d="M20.9129 55.5H9.14964C8.861 55.5 8.58281 55.392 8.36973 55.1973C8.15666 55.0026 8.02411 54.7353 7.99813 54.4478L5.78125 30.0625C6.41405 30.0625 7.02412 30.2984 7.49235 30.7241C7.96057 31.1497 8.25332 31.7347 8.31344 32.3646L9.30134 42.7377C9.60474 45.9221 11.077 48.8812 13.434 51.0439C15.7911 53.2066 18.8657 54.4194 22.0644 54.4484C22.0384 54.7359 21.9058 55.0032 21.6928 55.1979C21.4797 55.3926 21.2015 55.5 20.9129 55.5Z" fill="#F18FB1"/>
<path d="M24.2812 26.5938H5.78125V30.0625H24.2812V26.5938Z" fill="#FAE2EA"/>
<path d="M20.8125 55.5H9.25V62.4375H20.8125V55.5Z" fill="#CED6D9"/>
<path d="M17.3438 58.9688H12.7188V62.4375H17.3438V58.9688Z" fill="#90A2AC"/>
<path d="M50.7709 15.0312C50.6523 15.369 50.4318 15.6617 50.1398 15.8688C49.8477 16.0759 49.4986 16.1873 49.1406 16.1875H40.4687L39.6941 15.0312H50.7709Z" fill="#AEBDC4"/>
<path d="M20.8125 55.5H9.25V56.6562H20.8125V55.5Z" fill="#AEBDC4"/>
<path d="M31.2188 57.8125H26.5938V58.9688H31.2188V57.8125Z" fill="#AEBDC4"/>
</svg>
