<svg width="67" height="67" viewBox="0 0 67 67" fill="none" xmlns="http://www.w3.org/2000/svg">
<path d="M60.0346 36.8881L33.3266 21.3665C33.5631 21.5057 33.6997 21.7737 33.701 22.1915C33.701 22.604 33.567 23.0296 33.3332 23.4382C33.1184 23.8266 32.8082 24.1539 32.4319 24.3893L59.14 39.9097C59.5163 39.6743 59.8264 39.347 60.0412 38.9586C60.275 38.5513 60.409 38.1243 60.409 37.7118C60.4077 37.2954 60.2698 37.0261 60.0346 36.8881Z" fill="#00649B"/>
<path d="M63.2887 31.2522L36.5807 15.7305C35.5205 15.1223 34.0294 15.2182 32.4083 16.1536L59.1163 31.6739C60.7375 30.7385 62.2272 30.6426 63.2887 31.2522ZM61.0909 23.0743L34.3828 7.5526C33.9624 7.30825 33.3791 7.34241 32.7367 7.71419L59.4448 23.2345C60.0872 22.8641 60.6692 22.8299 61.0909 23.0743Z" fill="#3F9AE0"/>
<path d="M43.6406 12.9336L39.4669 10.5072C39.0465 10.2628 38.4632 10.297 37.8208 10.6688L41.9932 13.0939C42.637 12.7234 43.2202 12.6893 43.6406 12.9336Z" fill="#E9E8E6"/>
<path d="M59.1387 39.9098L32.4319 24.3894L8.0584 38.4607L34.7664 53.9824L59.1387 39.9098Z" fill="#3F9AE0"/>
<path d="M59.1387 39.9098L32.4319 24.3894L11.457 36.4993L38.165 52.0197L59.1387 39.9098Z" fill="#3F9AE0"/>
<path d="M56.8029 38.3226L30.0961 22.8022L13.3251 32.4844L40.0331 48.0061L56.8029 38.3226ZM11.6816 32.646L38.3897 48.1663C38.8101 48.4107 39.3934 48.3765 40.0331 48.0061L13.3251 32.4844C12.6853 32.8549 12.102 32.8903 11.6816 32.646Z" fill="white"/>
<path d="M6.432 43.9258L33.14 59.4475C32.7249 59.2057 32.4674 58.6947 32.4648 57.9669C32.4608 56.4995 33.4934 54.7167 34.7664 53.9824L8.05839 38.4607C6.78408 39.1964 5.75281 40.9791 5.75806 42.4465C5.75938 43.173 6.01687 43.6854 6.432 43.9258Z" fill="#0074D1"/>
<path d="M11.5161 46.8804L15.6898 49.3055C15.2747 49.0651 15.0172 48.5528 15.0159 47.8263C15.0106 46.3588 16.0432 44.5761 17.3162 43.8404L13.1425 41.4153C11.8695 42.151 10.8382 43.9337 10.8422 45.4011C10.8435 46.1276 11.101 46.64 11.5161 46.8804Z" fill="#D6D4D2"/>
<path d="M59.1163 31.6739L32.4083 16.1536L13.3094 27.1797L40.0174 42.7L59.1163 31.6739Z" fill="#0074D1"/>
<path d="M11.6816 32.646L38.3897 48.1664C37.9759 47.9259 37.7197 47.4149 37.7171 46.6858C37.7131 45.2223 38.7444 43.4356 40.0174 42.6999L13.3093 27.1809C12.0363 27.9166 11.0051 29.7033 11.009 31.1668C11.0103 31.8946 11.2678 32.4056 11.6816 32.646Z" fill="white"/>
<path d="M40.0174 42.7001C38.7444 43.4358 37.7118 45.2224 37.7171 46.6859C37.721 48.1533 38.7589 48.7406 40.0332 48.0062L56.8029 38.3241L59.1308 36.9801C59.4894 36.7765 59.7969 36.7568 60.0346 36.8882C60.2711 37.0261 60.4077 37.2954 60.409 37.7119C60.409 38.1244 60.275 38.55 60.0412 38.9599C59.8259 39.348 59.5153 39.6749 59.1387 39.9097L34.7664 53.9823C33.4921 54.718 32.4609 56.4994 32.4648 57.9669C32.47 59.4304 33.5079 60.0229 34.7809 59.2872L59.1544 45.2159C60.7756 44.2792 62.2614 42.6607 63.3163 40.8254C64.3739 38.9967 65.0347 36.9026 65.0294 35.045C65.0242 33.1808 64.3542 31.8553 63.2887 31.2523C62.2272 30.6427 60.7375 30.7386 59.1163 31.674L40.0161 42.7001H40.0174Z" fill="#006CB5"/>
<path d="M40.0174 42.7L13.3094 27.1797L7.86528 30.3234L34.5733 45.8438L40.0174 42.7Z" fill="#00649B"/>
<path d="M34.5733 45.8438L7.86528 30.3235C7.50663 30.5297 7.20316 30.5442 6.96538 30.4128L33.6734 45.9332C33.9112 46.0645 34.2147 46.0514 34.5733 45.8438Z" fill="#00649B"/>
<path d="M59.4435 23.2345L32.7367 7.71411L7.84163 22.0863L34.5497 37.6079L59.4435 23.2345Z" fill="#0074D1"/>
<path d="M41.9932 13.0938L37.8209 10.6687L12.9258 25.0409L17.0995 27.4673L41.9932 13.0938Z" fill="#D6D4D2"/>
<path d="M34.5497 37.6079C32.9338 38.5407 31.4466 40.1644 30.3917 41.9958C29.3329 43.8245 28.6734 45.9186 28.6786 47.7814C28.6839 49.6443 29.3539 50.9659 30.4193 51.5728C31.4769 52.1811 32.9627 52.0878 34.5746 51.1577L56.8029 38.3226L40.0331 48.0048C38.7588 48.7404 37.721 48.1532 37.7171 46.6858C37.7118 45.2223 38.7444 43.4356 40.0174 42.6999L34.5733 45.8437C34.2147 46.0513 33.9112 46.0644 33.6721 45.933C33.4369 45.7951 33.3003 45.5258 33.2951 45.1159C33.2977 44.7007 33.433 44.2712 33.6668 43.8626C33.9033 43.4553 34.2055 43.1243 34.5641 42.9167L59.4592 28.5445C60.7361 27.8075 61.7674 26.0196 61.7635 24.5521C61.7595 23.09 60.7217 22.4975 59.4434 23.2345L34.551 37.6066L34.5497 37.6079Z" fill="#006CB5"/>
<path d="M34.5497 37.6081L7.84162 22.0864C6.22574 23.0205 4.7386 24.6442 3.68368 26.4743C2.62744 28.3056 1.96533 30.3997 1.97058 32.2625C1.97584 34.1241 2.64584 35.447 3.71127 36.054L30.4193 51.5743C29.3539 50.9674 28.6839 49.6458 28.6786 47.7829C28.6734 45.92 29.3329 43.826 30.3917 41.9972C31.4466 40.1659 32.9325 38.5408 34.5497 37.6081Z" fill="#3F9AE0"/>
<path d="M17.0994 27.4673L12.9271 25.0396C11.3112 25.9736 9.82404 27.5974 8.76911 29.4274C7.71157 31.2574 7.05076 33.3515 7.05602 35.2144C7.06127 37.0759 7.73127 38.3988 8.7967 39.0058L12.9704 41.4309C11.905 40.824 11.235 39.5024 11.2297 37.6395C11.2245 35.7766 11.884 33.6826 12.9428 31.8538C13.9977 30.0225 15.4836 28.3987 17.1008 27.466L17.0994 27.4673Z" fill="#E9E8E6"/>
<path d="M59.1308 36.9787V39.9083L34.9083 53.8969C34.6165 54.0655 34.2697 54.1113 33.9441 54.0242C33.6185 53.9371 33.3409 53.7243 33.1722 53.4325C33.0036 53.1407 32.9578 52.7938 33.0449 52.4683C33.132 52.1427 33.3448 51.865 33.6366 51.6964L59.1308 36.9774V36.9787ZM35.1106 42.6015V45.5363L58.8247 31.8408C59.1045 31.6668 59.3057 31.3908 59.3858 31.0712C59.4658 30.7516 59.4184 30.4134 59.2536 30.1281C59.0887 29.8428 58.8194 29.6328 58.5025 29.5425C58.1857 29.4522 57.8461 29.4887 57.5556 29.6442L35.1106 42.6015Z" fill="#00649B"/>
<path d="M38.4304 37.7801C36.8671 38.2832 35.4745 39.5221 34.8439 41.3508C34.8291 41.4121 34.7941 41.4666 34.7445 41.5056C34.695 41.5446 34.6337 41.5658 34.5707 41.5658C34.5076 41.5658 34.4464 41.5446 34.3968 41.5056C34.3473 41.4666 34.3123 41.4121 34.2974 41.3508C34.0244 40.5171 33.5588 39.7593 32.9385 39.139C32.3181 38.5187 31.5604 38.0531 30.7267 37.7801C30.6648 37.7657 30.6096 37.7309 30.57 37.6811C30.5304 37.6314 30.5089 37.5697 30.5089 37.5062C30.5089 37.4426 30.5304 37.3809 30.57 37.3312C30.6096 37.2814 30.6648 37.2466 30.7267 37.2322C32.5567 36.6017 33.7943 35.2104 34.2974 33.6458C34.3146 33.5864 34.3505 33.5341 34.4 33.497C34.4494 33.4598 34.5095 33.4397 34.5713 33.4397C34.6332 33.4397 34.6933 33.4598 34.7427 33.497C34.7921 33.5341 34.8281 33.5864 34.8452 33.6458C35.1195 34.4832 35.5871 35.2442 36.2102 35.8673C36.8333 36.4903 37.5943 36.958 38.4317 37.2322C38.4911 37.2494 38.5433 37.2854 38.5805 37.3348C38.6177 37.3842 38.6378 37.4443 38.6378 37.5062C38.6378 37.568 38.6177 37.6281 38.5805 37.6775C38.5433 37.7269 38.4898 37.7629 38.4304 37.7801Z" fill="white"/>
</svg>
