<svg width="20" height="18" viewBox="0 0 20 18" fill="none" xmlns="http://www.w3.org/2000/svg">
<path d="M13.4504 1.76465H6.5877C5.0975 1.76465 3.8426 2.8823 3.66613 4.35288L3.13672 8.82347H16.8622L16.372 4.37249C16.1955 2.8823 14.9406 1.76465 13.4504 1.76465Z" fill="white"/>
<path d="M13.451 1.76465H10V8.82347H16.8627L16.3725 4.37249C16.1961 2.8823 14.9412 1.76465 13.451 1.76465Z" fill="#E9EEF4"/>
<path d="M16.8622 7.64697H3.13672V14.3136H16.8622V7.64697Z" fill="#676F77"/>
<path d="M16.8627 7.64697H10V14.3136H16.8627V7.64697Z" fill="#3D6464"/>
<path d="M3.13754 8.82373C2.05911 8.82373 1.17676 9.70608 1.17676 10.7845V14.3139H5.09833V10.7845C5.09833 9.70608 4.21597 8.82373 3.13754 8.82373ZM18.8238 14.3139V10.7845C18.8238 9.70608 17.9415 8.82373 16.863 8.82373C15.7846 8.82373 14.9022 9.70608 14.9022 10.7845V14.3139" fill="#676F77"/>
<path d="M5.09769 14.902C4.76436 14.902 4.50946 14.6471 4.50946 14.3138V10.7844C4.50946 10.0197 3.90162 9.41182 3.13691 9.41182C2.3722 9.41182 1.76436 10.0197 1.76436 10.7844V14.3138C1.76436 14.6471 1.50946 14.902 1.17613 14.902C0.842793 14.902 0.587891 14.6471 0.587891 14.3138V10.7844C0.587891 9.37261 1.72515 8.23535 3.13691 8.23535C4.54868 8.23535 5.68593 9.37261 5.68593 10.7844V14.3138C5.68593 14.6471 5.43103 14.902 5.09769 14.902ZM18.8232 14.902C18.4899 14.902 18.2349 14.6471 18.2349 14.3138V10.7844C18.2349 10.0197 17.6271 9.41182 16.8624 9.41182C16.0977 9.41182 15.4899 10.0197 15.4899 10.7844V14.3138C15.4899 14.6471 15.235 14.902 14.9016 14.902C14.5683 14.902 14.3134 14.6471 14.3134 14.3138V10.7844C14.3134 9.37261 15.4506 8.23535 16.8624 8.23535C18.2742 8.23535 19.4114 9.37261 19.4114 10.7844V14.3138C19.4114 14.6471 19.1565 14.902 18.8232 14.902Z" fill="#3D6464"/>
<path d="M16.6663 8.37244C16.6467 8.37244 16.6075 8.37244 16.5879 8.37244C12.2153 7.72538 7.80358 7.72538 3.43103 8.37244C3.11731 8.41165 2.80358 8.19597 2.76436 7.88224C2.72515 7.56852 2.94084 7.25479 3.25456 7.21558C7.74476 6.54891 12.2742 6.54891 16.7644 7.21558C17.0781 7.25479 17.3134 7.56852 17.2546 7.88224C17.1957 8.15675 16.9604 8.37244 16.6663 8.37244Z" fill="#444B54"/>
<path d="M3.13731 9.41181C3.1177 9.41181 3.0981 9.41181 3.05888 9.41181C2.74515 9.37259 2.50986 9.07847 2.54908 8.76475L3.07849 4.29416C3.29417 2.52946 4.80398 1.17651 6.58829 1.17651H13.451C15.255 1.17651 16.7648 2.52945 16.9608 4.31377L17.451 8.76475C17.4903 9.07847 17.255 9.37259 16.9216 9.41181C16.5883 9.45102 16.3138 9.21573 16.2746 8.902L15.7844 4.45102C15.6471 3.25495 14.6471 2.35298 13.451 2.35298H6.58829C5.39221 2.35298 4.39221 3.23534 4.25496 4.43142L3.72555 8.902C3.68633 9.19612 3.43143 9.41181 3.13731 9.41181Z" fill="#3D6464"/>
<path d="M17.6469 14.3137V17.0588H16.0782V14.3137" fill="#444B54"/>
<path d="M3.92129 14.3137V17.0588H2.35266V14.3137" fill="#444B54"/>
<path d="M17.6471 17.6472H16.0785C15.7452 17.6472 15.4903 17.3923 15.4903 17.0589V14.3138C15.4903 13.9805 15.7452 13.7256 16.0785 13.7256C16.4118 13.7256 16.6667 13.9805 16.6667 14.3138V16.4707H17.0589V14.3138C17.0589 13.9805 17.3138 13.7256 17.6471 13.7256C17.9805 13.7256 18.2354 13.9805 18.2354 14.3138V17.0589C18.2354 17.3923 17.9805 17.6472 17.6471 17.6472ZM3.92163 17.6472H2.35301C2.01967 17.6472 1.76477 17.3923 1.76477 17.0589V14.3138C1.76477 13.9805 2.01967 13.7256 2.35301 13.7256C2.68634 13.7256 2.94124 13.9805 2.94124 14.3138V16.4707H3.3334V14.3138C3.3334 13.9805 3.5883 13.7256 3.92163 13.7256C4.25497 13.7256 4.50987 13.9805 4.50987 14.3138V17.0589C4.50987 17.3923 4.25497 17.6472 3.92163 17.6472Z" fill="#444B54"/>
<path d="M19.4118 14.9021H0.588235C0.254902 14.9021 0 14.6472 0 14.3138C0 13.9805 0.254902 13.7256 0.588235 13.7256H19.4118C19.7451 13.7256 20 13.9805 20 14.3138C20 14.6472 19.7451 14.9021 19.4118 14.9021Z" fill="#444B54"/>
<path d="M11.6469 13.1373H8.35276C8.01943 13.1373 7.76453 12.8824 7.76453 12.549V10.6079C7.76453 9.37256 8.76453 8.37256 9.99982 8.37256C11.2351 8.37256 12.2351 9.37256 12.2351 10.6079V12.549C12.2351 12.8824 11.9802 13.1373 11.6469 13.1373Z" fill="white"/>
<path d="M11.9608 1.17647V1.76471H8.03918V1.17647C8.03918 0.529412 8.5686 0 9.21566 0H10.7843C11.4313 0 11.9608 0.529412 11.9608 1.17647Z" fill="#444B54"/>
<path d="M3.13762 11.7647C3.67907 11.7647 4.11801 11.3258 4.11801 10.7843C4.11801 10.2429 3.67907 9.80396 3.13762 9.80396C2.59616 9.80396 2.15723 10.2429 2.15723 10.7843C2.15723 11.3258 2.59616 11.7647 3.13762 11.7647Z" fill="white"/>
<path d="M16.8622 11.7645C17.4037 11.7645 17.8426 11.3256 17.8426 10.7841C17.8426 10.2426 17.4037 9.80371 16.8622 9.80371C16.3208 9.80371 15.8818 10.2426 15.8818 10.7841C15.8818 11.3256 16.3208 11.7645 16.8622 11.7645Z" fill="white"/>
<path d="M18.8241 17.6472H2.43199C2.09865 17.6472 1.84375 17.3923 1.84375 17.0589C1.84375 16.7256 2.09865 16.4707 2.43199 16.4707H18.8241C19.1575 16.4707 19.4124 16.7256 19.4124 17.0589C19.4124 17.3923 19.1575 17.6472 18.8241 17.6472Z" fill="#3D6464"/>
</svg>
